<?xml version="1.0" encoding="UTF-8"?>
<svg xmlns="http://www.w3.org/2000/svg" xmlns:xlink="http://www.w3.org/1999/xlink" width="40px" height="40px" viewBox="0 0 40 40" version="1.1">
<g id="surface1">
<path style=" stroke:none;fill-rule:nonzero;fill:rgb(0%,0%,0%);fill-opacity:1;" d="M 7.4375 9.269531 C 15.824219 9.269531 24.210938 9.269531 32.855469 9.269531 C 32.855469 9.320312 32.855469 9.367188 32.855469 9.417969 C 32.839844 9.417969 32.828125 9.417969 32.8125 9.417969 C 32.808594 9.429688 32.808594 9.445312 32.804688 9.460938 C 32.789062 9.53125 32.769531 9.597656 32.75 9.667969 C 32.734375 9.667969 32.722656 9.667969 32.707031 9.667969 C 32.707031 9.695312 32.707031 9.722656 32.707031 9.75 C 32.695312 9.75 32.679688 9.75 32.667969 9.75 C 32.667969 9.777344 32.667969 9.804688 32.667969 9.832031 C 32.652344 9.832031 32.640625 9.832031 32.625 9.832031 C 32.625 9.855469 32.625 9.875 32.625 9.894531 C 32.609375 9.894531 32.597656 9.894531 32.582031 9.894531 C 32.589844 9.917969 32.597656 9.9375 32.605469 9.957031 C 32.585938 10.003906 32.585938 10.003906 32.5625 10.042969 C 32.546875 10.042969 32.535156 10.042969 32.519531 10.042969 C 32.519531 10.070312 32.519531 10.097656 32.519531 10.125 C 32.507812 10.125 32.492188 10.125 32.480469 10.125 C 32.480469 10.144531 32.480469 10.167969 32.480469 10.1875 C 32.464844 10.1875 32.453125 10.1875 32.4375 10.1875 C 32.429688 10.242188 32.421875 10.296875 32.417969 10.355469 C 32.402344 10.355469 32.390625 10.355469 32.375 10.355469 C 32.375 10.386719 32.375 10.421875 32.375 10.457031 C 32.359375 10.457031 32.347656 10.457031 32.332031 10.457031 C 32.332031 10.480469 32.332031 10.5 32.332031 10.519531 C 32.320312 10.519531 32.304688 10.519531 32.292969 10.519531 C 32.285156 10.546875 32.277344 10.574219 32.269531 10.605469 C 31.027344 10.605469 29.78125 10.605469 28.5 10.605469 C 28.5 10.632812 28.5 10.660156 28.5 10.6875 C 28.484375 10.6875 28.472656 10.6875 28.457031 10.6875 C 28.425781 10.78125 28.425781 10.78125 28.394531 10.875 C 28.382812 10.875 28.367188 10.875 28.355469 10.875 C 28.339844 10.910156 28.328125 10.945312 28.3125 10.980469 C 28.296875 10.980469 28.285156 10.980469 28.269531 10.980469 C 28.265625 11.019531 28.257812 11.0625 28.25 11.105469 C 28.234375 11.105469 28.222656 11.105469 28.207031 11.105469 C 28.1875 11.191406 28.183594 11.273438 28.179688 11.363281 C 28.179688 11.378906 28.179688 11.394531 28.179688 11.410156 C 28.179688 11.457031 28.175781 11.5 28.175781 11.546875 C 28.175781 11.578125 28.175781 11.613281 28.171875 11.644531 C 28.171875 11.71875 28.167969 11.796875 28.167969 11.875 C 28.179688 11.875 28.195312 11.875 28.207031 11.875 C 28.207031 11.859375 28.207031 11.847656 28.207031 11.832031 C 28.261719 11.832031 28.316406 11.832031 28.375 11.832031 C 28.375 11.820312 28.375 11.804688 28.375 11.792969 C 28.429688 11.792969 28.484375 11.792969 28.542969 11.792969 C 28.542969 11.777344 28.542969 11.765625 28.542969 11.75 C 28.71875 11.738281 28.71875 11.738281 28.894531 11.730469 C 28.894531 11.714844 28.894531 11.703125 28.894531 11.6875 C 28.949219 11.6875 29.003906 11.6875 29.0625 11.6875 C 29.0625 11.671875 29.0625 11.660156 29.0625 11.644531 C 29.117188 11.644531 29.171875 11.644531 29.230469 11.644531 C 29.230469 11.632812 29.230469 11.617188 29.230469 11.605469 C 29.367188 11.582031 29.484375 11.582031 29.625 11.582031 C 29.625 11.769531 29.625 11.953125 29.625 12.144531 C 30.414062 12.152344 31.207031 12.160156 32.019531 12.167969 C 32.019531 12.152344 32.019531 12.140625 32.019531 12.125 C 32.078125 12.140625 32.132812 12.152344 32.1875 12.167969 C 32.179688 12.195312 32.171875 12.222656 32.167969 12.25 C 32.160156 12.640625 32.152344 13.035156 32.144531 13.4375 C 30.839844 13.445312 29.535156 13.453125 28.1875 13.457031 C 28.1875 15.390625 28.1875 17.320312 28.1875 19.3125 C 28.222656 19.3125 28.257812 19.3125 28.292969 19.3125 C 28.292969 19.296875 28.292969 19.285156 28.292969 19.269531 C 28.324219 19.269531 28.359375 19.269531 28.394531 19.269531 C 28.394531 19.257812 28.394531 19.242188 28.394531 19.230469 C 28.472656 19.222656 28.546875 19.214844 28.625 19.207031 C 28.625 19.195312 28.625 19.179688 28.625 19.167969 C 28.660156 19.167969 28.695312 19.167969 28.730469 19.167969 C 28.730469 19.152344 28.730469 19.140625 28.730469 19.125 C 28.761719 19.125 28.796875 19.125 28.832031 19.125 C 28.832031 19.109375 28.832031 19.097656 28.832031 19.082031 C 28.847656 19.082031 28.859375 19.082031 28.875 19.082031 C 28.875 18.738281 28.875 18.394531 28.875 18.042969 C 28.890625 18.042969 28.902344 18.042969 28.917969 18.042969 C 28.917969 18.027344 28.917969 18.015625 28.917969 18 C 28.964844 17.992188 29.011719 17.984375 29.0625 17.980469 C 29.0625 17.964844 29.0625 17.953125 29.0625 17.9375 C 29.089844 17.9375 29.117188 17.9375 29.144531 17.9375 C 29.144531 17.921875 29.144531 17.910156 29.144531 17.894531 C 29.167969 17.894531 29.1875 17.894531 29.207031 17.894531 C 29.207031 17.882812 29.207031 17.867188 29.207031 17.855469 C 29.777344 17.855469 30.347656 17.855469 30.9375 17.855469 C 30.9375 17.867188 30.9375 17.882812 30.9375 17.894531 C 30.964844 17.894531 30.992188 17.894531 31.019531 17.894531 C 31.019531 21.816406 31.019531 25.734375 31.019531 29.769531 C 31.035156 29.769531 31.046875 29.769531 31.0625 29.769531 C 31.0625 29.785156 31.0625 29.796875 31.0625 29.8125 C 31.105469 29.820312 31.144531 29.828125 31.1875 29.832031 C 31.1875 29.847656 31.1875 29.859375 31.1875 29.875 C 31.207031 29.875 31.230469 29.875 31.25 29.875 C 31.25 29.890625 31.25 29.902344 31.25 29.917969 C 31.261719 29.917969 31.273438 29.921875 31.289062 29.925781 C 31.324219 29.933594 31.359375 29.945312 31.394531 29.957031 C 31.394531 29.972656 31.394531 29.984375 31.394531 30 C 31.429688 30.007812 31.464844 30.015625 31.5 30.019531 C 31.5 30.035156 31.5 30.046875 31.5 30.0625 C 31.527344 30.0625 31.554688 30.0625 31.582031 30.0625 C 31.582031 30.078125 31.582031 30.089844 31.582031 30.105469 C 31.59375 30.105469 31.605469 30.109375 31.617188 30.113281 C 31.671875 30.125 31.71875 30.144531 31.769531 30.167969 C 31.769531 30.179688 31.769531 30.195312 31.769531 30.207031 C 31.785156 30.210938 31.796875 30.214844 31.808594 30.21875 C 31.84375 30.226562 31.882812 30.238281 31.917969 30.25 C 31.917969 30.265625 31.917969 30.277344 31.917969 30.292969 C 31.929688 30.292969 31.941406 30.296875 31.953125 30.300781 C 32.003906 30.3125 32.054688 30.332031 32.105469 30.355469 C 32.105469 30.367188 32.105469 30.382812 32.105469 30.394531 C 32.132812 30.394531 32.160156 30.394531 32.1875 30.394531 C 32.1875 30.410156 32.1875 30.421875 32.1875 30.4375 C 32.203125 30.4375 32.214844 30.4375 32.230469 30.4375 C 32.230469 30.453125 32.230469 30.464844 32.230469 30.480469 C 32.25 30.480469 32.269531 30.480469 32.292969 30.480469 C 32.292969 30.492188 32.292969 30.507812 32.292969 30.519531 C 32.339844 30.527344 32.386719 30.535156 32.4375 30.542969 C 32.4375 30.554688 32.4375 30.570312 32.4375 30.582031 C 32.457031 30.582031 32.480469 30.582031 32.5 30.582031 C 32.5 30.597656 32.5 30.609375 32.5 30.625 C 32.511719 30.628906 32.523438 30.628906 32.535156 30.632812 C 32.550781 30.636719 32.566406 30.640625 32.582031 30.644531 C 32.617188 30.652344 32.617188 30.652344 32.648438 30.664062 C 32.707031 30.6875 32.707031 30.6875 32.726562 30.730469 C 32.726562 30.746094 32.726562 30.757812 32.730469 30.769531 C 32.757812 30.769531 32.785156 30.769531 32.8125 30.769531 C 32.8125 30.785156 32.8125 30.796875 32.8125 30.8125 C 32.824219 30.816406 32.835938 30.816406 32.847656 30.820312 C 32.902344 30.835938 32.949219 30.855469 33 30.875 C 33 30.890625 33 30.902344 33 30.917969 C 33.019531 30.917969 33.042969 30.917969 33.0625 30.917969 C 33.0625 30.929688 33.0625 30.945312 33.0625 30.957031 C 33.089844 30.957031 33.117188 30.957031 33.144531 30.957031 C 33.144531 30.972656 33.144531 30.984375 33.144531 31 C 33.15625 31.003906 33.167969 31.003906 33.179688 31.007812 C 33.234375 31.023438 33.28125 31.042969 33.332031 31.0625 C 33.332031 31.078125 33.332031 31.089844 33.332031 31.105469 C 33.347656 31.105469 33.359375 31.109375 33.371094 31.113281 C 33.40625 31.121094 33.445312 31.132812 33.480469 31.144531 C 33.480469 31.160156 33.480469 31.171875 33.480469 31.1875 C 33.511719 31.195312 33.546875 31.203125 33.582031 31.207031 C 33.582031 31.222656 33.582031 31.234375 33.582031 31.25 C 33.609375 31.25 33.636719 31.25 33.667969 31.25 C 33.667969 31.265625 33.667969 31.277344 33.667969 31.292969 C 33.714844 31.3125 33.761719 31.332031 33.8125 31.347656 C 33.933594 31.386719 33.933594 31.386719 33.964844 31.441406 C 33.96875 31.453125 33.972656 31.464844 33.980469 31.480469 C 34.007812 31.488281 34.035156 31.492188 34.0625 31.5 C 34.097656 31.515625 34.128906 31.527344 34.160156 31.542969 C 34.179688 31.550781 34.195312 31.558594 34.210938 31.566406 C 34.230469 31.574219 34.230469 31.574219 34.25 31.582031 C 34.25 31.597656 34.25 31.609375 34.25 31.625 C 34.265625 31.625 34.277344 31.625 34.292969 31.625 C 34.292969 31.640625 34.292969 31.652344 34.292969 31.667969 C 34.320312 31.667969 34.347656 31.667969 34.375 31.667969 C 34.375 31.679688 34.375 31.695312 34.375 31.707031 C 34.417969 31.714844 34.457031 31.722656 34.5 31.730469 C 34.5 31.742188 34.5 31.757812 34.5 31.769531 C 34.519531 31.769531 34.542969 31.769531 34.5625 31.769531 C 34.5625 31.785156 34.5625 31.796875 34.5625 31.8125 C 34.582031 31.8125 34.605469 31.8125 34.625 31.8125 C 34.625 31.828125 34.625 31.839844 34.625 31.855469 C 34.652344 31.855469 34.679688 31.855469 34.707031 31.855469 C 34.707031 31.867188 34.707031 31.882812 34.707031 31.894531 C 34.742188 31.902344 34.777344 31.910156 34.8125 31.917969 C 34.8125 31.929688 34.8125 31.945312 34.8125 31.957031 C 34.839844 31.957031 34.867188 31.957031 34.894531 31.957031 C 34.894531 31.972656 34.894531 31.984375 34.894531 32 C 34.90625 32.003906 34.917969 32.003906 34.929688 32.007812 C 34.988281 32.023438 35.03125 32.050781 35.082031 32.082031 C 35.105469 32.089844 35.125 32.097656 35.144531 32.105469 C 35.144531 32.117188 35.144531 32.132812 35.144531 32.144531 C 35.160156 32.144531 35.171875 32.144531 35.1875 32.144531 C 35.1875 32.160156 35.1875 32.171875 35.1875 32.1875 C 35.214844 32.1875 35.242188 32.1875 35.269531 32.1875 C 35.269531 32.203125 35.269531 32.214844 35.269531 32.230469 C 35.320312 32.234375 35.367188 32.242188 35.417969 32.25 C 35.417969 32.265625 35.417969 32.277344 35.417969 32.292969 C 35.4375 32.292969 35.457031 32.292969 35.480469 32.292969 C 35.480469 32.304688 35.480469 32.320312 35.480469 32.332031 C 35.492188 32.332031 35.507812 32.332031 35.519531 32.332031 C 35.519531 32.347656 35.519531 32.359375 35.519531 32.375 C 35.546875 32.375 35.574219 32.375 35.605469 32.375 C 35.605469 32.390625 35.605469 32.402344 35.605469 32.417969 C 35.644531 32.421875 35.6875 32.429688 35.730469 32.4375 C 35.730469 32.453125 35.730469 32.464844 35.730469 32.480469 C 35.75 32.480469 35.769531 32.480469 35.792969 32.480469 C 35.792969 32.492188 35.792969 32.507812 35.792969 32.519531 C 35.8125 32.519531 35.832031 32.519531 35.855469 32.519531 C 35.855469 32.535156 35.855469 32.546875 35.855469 32.5625 C 35.882812 32.5625 35.910156 32.5625 35.9375 32.5625 C 35.9375 32.578125 35.9375 32.589844 35.9375 32.605469 C 35.972656 32.609375 36.007812 32.617188 36.042969 32.625 C 36.042969 32.640625 36.042969 32.652344 36.042969 32.667969 C 36.070312 32.667969 36.097656 32.667969 36.125 32.667969 C 36.125 32.679688 36.125 32.695312 36.125 32.707031 C 36.136719 32.710938 36.148438 32.714844 36.160156 32.714844 C 36.214844 32.730469 36.261719 32.75 36.3125 32.769531 C 36.3125 32.785156 36.3125 32.796875 36.3125 32.8125 C 36.339844 32.8125 36.367188 32.8125 36.394531 32.8125 C 36.402344 32.847656 36.410156 32.882812 36.417969 32.917969 C 35.46875 32.917969 34.519531 32.917969 33.570312 32.917969 C 33.554688 32.917969 33.542969 32.917969 33.527344 32.917969 C 33.222656 32.917969 32.917969 32.917969 32.613281 32.917969 C 32.464844 32.917969 32.3125 32.917969 32.164062 32.917969 C 32.140625 32.917969 32.140625 32.917969 32.121094 32.917969 C 31.636719 32.917969 31.152344 32.917969 30.671875 32.917969 C 30.175781 32.917969 29.679688 32.917969 29.183594 32.917969 C 29.113281 32.917969 29.042969 32.917969 28.972656 32.917969 C 28.960938 32.917969 28.945312 32.917969 28.933594 32.917969 C 28.695312 32.917969 28.460938 32.917969 28.222656 32.917969 C 28.015625 32.917969 27.804688 32.917969 27.597656 32.917969 C 27.476562 32.917969 27.355469 32.917969 27.234375 32.917969 C 27.125 32.917969 27.011719 32.917969 26.902344 32.917969 C 26.863281 32.917969 26.820312 32.917969 26.78125 32.917969 C 26.726562 32.917969 26.671875 32.917969 26.617188 32.917969 C 26.601562 32.917969 26.585938 32.917969 26.570312 32.917969 C 26.464844 32.917969 26.464844 32.917969 26.417969 32.894531 C 26.417969 32.875 26.417969 32.855469 26.417969 32.832031 C 26.402344 32.828125 26.390625 32.820312 26.375 32.8125 C 26.296875 32.722656 26.296875 32.722656 26.28125 32.664062 C 26.277344 32.644531 26.277344 32.644531 26.269531 32.625 C 26.25 32.617188 26.25 32.617188 26.230469 32.605469 C 26.214844 32.597656 26.203125 32.589844 26.1875 32.582031 C 26.171875 32.527344 26.171875 32.527344 26.167969 32.480469 C 26.152344 32.480469 26.140625 32.480469 26.125 32.480469 C 26.109375 32.445312 26.097656 32.410156 26.082031 32.375 C 26.070312 32.375 26.054688 32.375 26.042969 32.375 C 25.980469 32.285156 25.980469 32.285156 25.980469 32.230469 C 25.964844 32.230469 25.953125 32.230469 25.9375 32.230469 C 25.9375 32.214844 25.9375 32.203125 25.9375 32.1875 C 25.921875 32.1875 25.910156 32.1875 25.894531 32.1875 C 25.890625 32.167969 25.890625 32.167969 25.886719 32.148438 C 25.882812 32.125 25.882812 32.125 25.875 32.105469 C 25.859375 32.097656 25.847656 32.089844 25.832031 32.082031 C 25.832031 32.070312 25.832031 32.054688 25.832031 32.042969 C 25.820312 32.042969 25.804688 32.042969 25.792969 32.042969 C 25.792969 32.015625 25.792969 31.988281 25.792969 31.957031 C 25.777344 31.957031 25.765625 31.957031 25.75 31.957031 C 25.75 31.945312 25.75 31.929688 25.75 31.917969 C 25.734375 31.917969 25.722656 31.917969 25.707031 31.917969 C 25.703125 31.882812 25.695312 31.847656 25.6875 31.8125 C 25.671875 31.8125 25.660156 31.8125 25.644531 31.8125 C 25.644531 31.796875 25.644531 31.785156 25.644531 31.769531 C 25.632812 31.769531 25.617188 31.769531 25.605469 31.769531 C 25.605469 31.75 25.605469 31.730469 25.605469 31.707031 C 25.589844 31.707031 25.578125 31.707031 25.5625 31.707031 C 25.5625 31.695312 25.5625 31.679688 25.5625 31.667969 C 25.546875 31.667969 25.535156 31.667969 25.519531 31.667969 C 25.515625 31.648438 25.507812 31.632812 25.503906 31.617188 C 25.480469 31.558594 25.480469 31.558594 25.417969 31.519531 C 25.417969 31.492188 25.417969 31.464844 25.417969 31.4375 C 25.402344 31.4375 25.390625 31.4375 25.375 31.4375 C 25.375 31.421875 25.375 31.410156 25.375 31.394531 C 25.359375 31.394531 25.347656 31.394531 25.332031 31.394531 C 25.328125 31.363281 25.320312 31.328125 25.3125 31.292969 C 25.296875 31.292969 25.285156 31.292969 25.269531 31.292969 C 25.269531 31.277344 25.269531 31.265625 25.269531 31.25 C 25.257812 31.25 25.242188 31.25 25.230469 31.25 C 25.230469 31.230469 25.230469 31.207031 25.230469 31.1875 C 25.214844 31.1875 25.203125 31.1875 25.1875 31.1875 C 25.179688 31.160156 25.171875 31.132812 25.167969 31.105469 C 25.152344 31.105469 25.140625 31.105469 25.125 31.105469 C 25.125 31.078125 25.125 31.050781 25.125 31.019531 C 25.113281 31.019531 25.101562 31.019531 25.085938 31.019531 C 25.019531 30.992188 25.007812 30.941406 24.980469 30.875 C 24.964844 30.867188 24.953125 30.859375 24.9375 30.855469 C 24.9375 30.839844 24.9375 30.828125 24.9375 30.8125 C 24.921875 30.8125 24.910156 30.8125 24.894531 30.8125 C 24.894531 30.785156 24.894531 30.757812 24.894531 30.730469 C 24.882812 30.730469 24.867188 30.730469 24.855469 30.730469 C 24.855469 30.714844 24.855469 30.703125 24.855469 30.6875 C 24.839844 30.6875 24.828125 30.6875 24.8125 30.6875 C 24.804688 30.652344 24.796875 30.617188 24.792969 30.582031 C 24.777344 30.582031 24.765625 30.582031 24.75 30.582031 C 24.734375 30.550781 24.722656 30.515625 24.707031 30.480469 C 24.695312 30.480469 24.679688 30.480469 24.667969 30.480469 C 24.667969 30.464844 24.667969 30.453125 24.667969 30.4375 C 24.652344 30.4375 24.640625 30.4375 24.625 30.4375 C 24.621094 30.417969 24.621094 30.417969 24.617188 30.398438 C 24.613281 30.382812 24.609375 30.367188 24.605469 30.355469 C 24.589844 30.347656 24.578125 30.339844 24.5625 30.332031 C 24.5625 30.320312 24.5625 30.304688 24.5625 30.292969 C 24.546875 30.292969 24.535156 30.292969 24.519531 30.292969 C 24.515625 30.277344 24.507812 30.261719 24.503906 30.246094 C 24.480469 30.191406 24.453125 30.152344 24.417969 30.105469 C 24.417969 30.089844 24.417969 30.078125 24.417969 30.0625 C 24.402344 30.0625 24.390625 30.0625 24.375 30.0625 C 24.375 30.046875 24.375 30.035156 24.375 30.019531 C 24.359375 30.019531 24.347656 30.019531 24.332031 30.019531 C 24.332031 30 24.332031 29.980469 24.332031 29.957031 C 24.320312 29.953125 24.304688 29.945312 24.292969 29.9375 C 24.230469 29.863281 24.230469 29.863281 24.230469 29.8125 C 24.214844 29.8125 24.203125 29.8125 24.1875 29.8125 C 24.1875 29.796875 24.1875 29.785156 24.1875 29.769531 C 24.171875 29.769531 24.160156 29.769531 24.144531 29.769531 C 24.144531 29.75 24.144531 29.730469 24.144531 29.707031 C 24.132812 29.703125 24.117188 29.695312 24.105469 29.6875 C 24.070312 29.660156 24.070312 29.660156 24.042969 29.625 C 24.042969 29.597656 24.042969 29.570312 24.042969 29.542969 C 24.027344 29.542969 24.015625 29.542969 24 29.542969 C 24 29.527344 24 29.515625 24 29.5 C 23.984375 29.5 23.972656 29.5 23.957031 29.5 C 23.957031 29.484375 23.957031 29.472656 23.957031 29.457031 C 23.945312 29.457031 23.929688 29.457031 23.917969 29.457031 C 23.910156 29.425781 23.902344 29.390625 23.894531 29.355469 C 23.882812 29.355469 23.867188 29.355469 23.855469 29.355469 C 23.855469 29.339844 23.855469 29.328125 23.855469 29.3125 C 23.839844 29.3125 23.828125 29.3125 23.8125 29.3125 C 23.8125 29.292969 23.8125 29.269531 23.8125 29.25 C 23.796875 29.242188 23.785156 29.234375 23.769531 29.230469 C 23.757812 29.207031 23.742188 29.1875 23.730469 29.167969 C 23.734375 29.152344 23.742188 29.140625 23.75 29.125 C 23.722656 29.117188 23.695312 29.109375 23.667969 29.105469 C 23.667969 29.089844 23.667969 29.078125 23.667969 29.0625 C 23.652344 29.0625 23.640625 29.0625 23.625 29.0625 C 23.621094 29.046875 23.613281 29.03125 23.609375 29.015625 C 23.585938 28.960938 23.554688 28.921875 23.519531 28.875 C 23.519531 28.859375 23.519531 28.847656 23.519531 28.832031 C 23.507812 28.832031 23.492188 28.832031 23.480469 28.832031 C 23.480469 28.820312 23.480469 28.804688 23.480469 28.792969 C 23.464844 28.792969 23.453125 28.792969 23.4375 28.792969 C 23.429688 28.757812 23.421875 28.722656 23.417969 28.6875 C 23.402344 28.6875 23.390625 28.6875 23.375 28.6875 C 23.359375 28.652344 23.347656 28.617188 23.332031 28.582031 C 23.320312 28.582031 23.304688 28.582031 23.292969 28.582031 C 23.292969 28.570312 23.292969 28.554688 23.292969 28.542969 C 23.277344 28.542969 23.265625 28.542969 23.25 28.542969 C 23.25 28.519531 23.25 28.5 23.25 28.480469 C 23.234375 28.472656 23.222656 28.464844 23.207031 28.457031 C 23.175781 28.429688 23.175781 28.429688 23.144531 28.394531 C 23.144531 28.367188 23.144531 28.339844 23.144531 28.3125 C 23.132812 28.3125 23.117188 28.3125 23.105469 28.3125 C 23.105469 28.296875 23.105469 28.285156 23.105469 28.269531 C 23.089844 28.269531 23.078125 28.269531 23.0625 28.269531 C 23.054688 28.238281 23.046875 28.203125 23.042969 28.167969 C 23.027344 28.167969 23.015625 28.167969 23 28.167969 C 23 28.152344 23 28.140625 23 28.125 C 22.984375 28.125 22.972656 28.125 22.957031 28.125 C 22.957031 28.105469 22.957031 28.082031 22.957031 28.0625 C 22.945312 28.0625 22.929688 28.0625 22.917969 28.0625 C 22.910156 28.035156 22.902344 28.007812 22.894531 27.980469 C 22.882812 27.980469 22.867188 27.980469 22.855469 27.980469 C 22.855469 27.953125 22.855469 27.925781 22.855469 27.894531 C 22.828125 27.890625 22.800781 27.882812 22.769531 27.875 C 22.769531 27.859375 22.769531 27.847656 22.769531 27.832031 C 22.757812 27.832031 22.742188 27.832031 22.730469 27.832031 C 22.726562 27.8125 22.726562 27.8125 22.722656 27.792969 C 22.71875 27.777344 22.710938 27.765625 22.707031 27.75 C 22.695312 27.742188 22.679688 27.734375 22.667969 27.730469 C 22.667969 27.703125 22.667969 27.675781 22.667969 27.644531 C 22.652344 27.644531 22.640625 27.644531 22.625 27.644531 C 22.625 27.632812 22.625 27.617188 22.625 27.605469 C 22.609375 27.605469 22.597656 27.605469 22.582031 27.605469 C 22.582031 27.589844 22.582031 27.578125 22.582031 27.5625 C 22.570312 27.5625 22.554688 27.5625 22.542969 27.5625 C 22.535156 27.527344 22.527344 27.492188 22.519531 27.457031 C 22.507812 27.457031 22.492188 27.457031 22.480469 27.457031 C 22.480469 27.445312 22.480469 27.429688 22.480469 27.417969 C 22.464844 27.417969 22.453125 27.417969 22.4375 27.417969 C 22.4375 27.394531 22.4375 27.375 22.4375 27.355469 C 22.421875 27.355469 22.410156 27.355469 22.394531 27.355469 C 22.394531 27.339844 22.394531 27.328125 22.394531 27.3125 C 22.382812 27.3125 22.367188 27.3125 22.355469 27.3125 C 22.359375 27.285156 22.367188 27.257812 22.375 27.230469 C 22.347656 27.222656 22.320312 27.214844 22.292969 27.207031 C 22.292969 27.195312 22.292969 27.179688 22.292969 27.167969 C 22.277344 27.167969 22.265625 27.167969 22.25 27.167969 C 22.242188 27.152344 22.238281 27.136719 22.230469 27.121094 C 22.210938 27.070312 22.191406 27.027344 22.167969 26.980469 C 22.144531 26.980469 22.125 26.980469 22.105469 26.980469 C 22.101562 26.945312 22.101562 26.910156 22.105469 26.875 C 22.144531 26.835938 22.203125 26.851562 22.257812 26.851562 C 22.277344 26.851562 22.296875 26.851562 22.316406 26.851562 C 22.335938 26.851562 22.355469 26.851562 22.375 26.851562 C 22.441406 26.851562 22.507812 26.851562 22.574219 26.851562 C 22.621094 26.851562 22.667969 26.851562 22.710938 26.851562 C 22.808594 26.851562 22.90625 26.851562 23.003906 26.851562 C 23.125 26.851562 23.25 26.851562 23.375 26.851562 C 23.46875 26.851562 23.566406 26.851562 23.660156 26.851562 C 23.707031 26.851562 23.75 26.851562 23.796875 26.851562 C 24.199219 26.851562 24.199219 26.851562 24.335938 26.863281 C 24.515625 26.878906 24.695312 26.875 24.875 26.875 C 24.886719 23.398438 24.886719 23.398438 24.894531 19.855469 C 24.9375 19.84375 24.9375 19.84375 24.980469 19.832031 C 24.980469 19.820312 24.980469 19.804688 24.980469 19.792969 C 25.042969 19.75 25.054688 19.746094 25.128906 19.746094 C 25.144531 19.746094 25.164062 19.746094 25.179688 19.746094 C 25.199219 19.746094 25.21875 19.746094 25.238281 19.746094 C 25.265625 19.746094 25.265625 19.746094 25.296875 19.746094 C 25.335938 19.746094 25.378906 19.746094 25.417969 19.746094 C 25.480469 19.746094 25.542969 19.746094 25.605469 19.746094 C 25.644531 19.746094 25.6875 19.746094 25.726562 19.746094 C 25.753906 19.746094 25.753906 19.746094 25.78125 19.746094 C 25.914062 19.746094 25.914062 19.746094 25.9375 19.769531 C 25.9375 19.824219 25.9375 19.875 25.9375 19.929688 C 25.9375 19.941406 25.9375 19.957031 25.9375 19.972656 C 25.9375 20.011719 25.9375 20.046875 25.9375 20.082031 C 26.011719 20.078125 26.089844 20.070312 26.167969 20.0625 C 26.167969 17.875 26.167969 15.691406 26.167969 13.4375 C 22.097656 13.4375 18.027344 13.4375 13.832031 13.4375 C 13.84375 16.707031 13.84375 16.707031 13.855469 20.042969 C 13.9375 20.054688 14.019531 20.070312 14.105469 20.082031 C 14.105469 20.050781 14.105469 20.015625 14.105469 19.980469 C 14.089844 19.980469 14.078125 19.980469 14.0625 19.980469 C 14.0625 19.957031 14.0625 19.9375 14.0625 19.917969 C 14.078125 19.917969 14.089844 19.917969 14.105469 19.917969 C 14.105469 19.863281 14.105469 19.808594 14.105469 19.75 C 14.386719 19.75 14.667969 19.75 14.957031 19.75 C 14.957031 19.765625 14.957031 19.777344 14.957031 19.792969 C 14.984375 19.792969 15.011719 19.792969 15.042969 19.792969 C 15.042969 19.804688 15.042969 19.820312 15.042969 19.832031 C 15.0625 19.832031 15.082031 19.832031 15.105469 19.832031 C 15.105469 22.164062 15.105469 24.496094 15.105469 26.894531 C 15.332031 26.882812 15.558594 26.867188 15.792969 26.855469 C 15.964844 26.851562 16.140625 26.847656 16.3125 26.847656 C 16.359375 26.847656 16.40625 26.847656 16.449219 26.847656 C 16.542969 26.847656 16.636719 26.847656 16.734375 26.851562 C 16.851562 26.851562 16.972656 26.851562 17.09375 26.851562 C 17.1875 26.851562 17.28125 26.851562 17.375 26.851562 C 17.417969 26.851562 17.464844 26.851562 17.507812 26.851562 C 17.570312 26.851562 17.632812 26.851562 17.691406 26.851562 C 17.710938 26.851562 17.730469 26.851562 17.746094 26.851562 C 17.871094 26.851562 17.871094 26.851562 17.894531 26.875 C 17.898438 26.910156 17.898438 26.945312 17.894531 26.980469 C 17.875 26.980469 17.855469 26.980469 17.832031 26.980469 C 17.800781 27.039062 17.773438 27.101562 17.75 27.167969 C 17.734375 27.167969 17.722656 27.167969 17.707031 27.167969 C 17.703125 27.1875 17.695312 27.207031 17.6875 27.230469 C 17.667969 27.230469 17.644531 27.230469 17.625 27.230469 C 17.632812 27.257812 17.640625 27.285156 17.644531 27.3125 C 17.632812 27.3125 17.617188 27.3125 17.605469 27.3125 C 17.605469 27.328125 17.605469 27.339844 17.605469 27.355469 C 17.589844 27.355469 17.578125 27.355469 17.5625 27.355469 C 17.5625 27.375 17.5625 27.394531 17.5625 27.417969 C 17.546875 27.417969 17.535156 27.417969 17.519531 27.417969 C 17.519531 27.429688 17.519531 27.445312 17.519531 27.457031 C 17.507812 27.457031 17.492188 27.457031 17.480469 27.457031 C 17.472656 27.492188 17.464844 27.527344 17.457031 27.5625 C 17.445312 27.5625 17.429688 27.5625 17.417969 27.5625 C 17.417969 27.578125 17.417969 27.589844 17.417969 27.605469 C 17.402344 27.605469 17.390625 27.605469 17.375 27.605469 C 17.375 27.617188 17.375 27.632812 17.375 27.644531 C 17.359375 27.644531 17.347656 27.644531 17.332031 27.644531 C 17.332031 27.671875 17.332031 27.699219 17.332031 27.730469 C 17.300781 27.761719 17.300781 27.761719 17.269531 27.792969 C 17.269531 27.804688 17.269531 27.820312 17.269531 27.832031 C 17.257812 27.832031 17.242188 27.832031 17.230469 27.832031 C 17.230469 27.847656 17.230469 27.859375 17.230469 27.875 C 17.203125 27.882812 17.175781 27.890625 17.144531 27.894531 C 17.144531 27.921875 17.144531 27.949219 17.144531 27.980469 C 17.132812 27.980469 17.117188 27.980469 17.105469 27.980469 C 17.097656 28.007812 17.089844 28.035156 17.082031 28.0625 C 17.070312 28.0625 17.054688 28.0625 17.042969 28.0625 C 17.042969 28.082031 17.042969 28.105469 17.042969 28.125 C 17.027344 28.125 17.015625 28.125 17 28.125 C 17 28.140625 17 28.152344 17 28.167969 C 16.984375 28.167969 16.972656 28.167969 16.957031 28.167969 C 16.953125 28.199219 16.945312 28.234375 16.9375 28.269531 C 16.921875 28.269531 16.910156 28.269531 16.894531 28.269531 C 16.894531 28.285156 16.894531 28.296875 16.894531 28.3125 C 16.882812 28.3125 16.867188 28.3125 16.855469 28.3125 C 16.855469 28.339844 16.855469 28.367188 16.855469 28.394531 C 16.820312 28.4375 16.796875 28.457031 16.75 28.480469 C 16.75 28.5 16.75 28.519531 16.75 28.542969 C 16.734375 28.542969 16.722656 28.542969 16.707031 28.542969 C 16.707031 28.554688 16.707031 28.570312 16.707031 28.582031 C 16.695312 28.582031 16.679688 28.582031 16.667969 28.582031 C 16.652344 28.617188 16.640625 28.652344 16.625 28.6875 C 16.609375 28.6875 16.597656 28.6875 16.582031 28.6875 C 16.578125 28.722656 16.570312 28.757812 16.5625 28.792969 C 16.546875 28.792969 16.535156 28.792969 16.519531 28.792969 C 16.519531 28.804688 16.519531 28.820312 16.519531 28.832031 C 16.507812 28.832031 16.492188 28.832031 16.480469 28.832031 C 16.472656 28.851562 16.46875 28.867188 16.460938 28.882812 C 16.4375 28.9375 16.4375 28.9375 16.394531 28.980469 C 16.382812 29.023438 16.382812 29.023438 16.375 29.0625 C 16.359375 29.0625 16.347656 29.0625 16.332031 29.0625 C 16.332031 29.078125 16.332031 29.089844 16.332031 29.105469 C 16.304688 29.109375 16.277344 29.117188 16.25 29.125 C 16.257812 29.144531 16.265625 29.167969 16.269531 29.1875 C 16.257812 29.207031 16.242188 29.230469 16.230469 29.25 C 16.214844 29.25 16.203125 29.25 16.1875 29.25 C 16.1875 29.269531 16.1875 29.292969 16.1875 29.3125 C 16.171875 29.3125 16.160156 29.3125 16.144531 29.3125 C 16.144531 29.328125 16.144531 29.339844 16.144531 29.355469 C 16.132812 29.355469 16.117188 29.355469 16.105469 29.355469 C 16.097656 29.386719 16.089844 29.421875 16.082031 29.457031 C 16.070312 29.457031 16.054688 29.457031 16.042969 29.457031 C 16.042969 29.472656 16.042969 29.484375 16.042969 29.5 C 16.027344 29.5 16.015625 29.5 16 29.5 C 16 29.515625 16 29.527344 16 29.542969 C 15.984375 29.542969 15.972656 29.542969 15.957031 29.542969 C 15.957031 29.570312 15.957031 29.597656 15.957031 29.625 C 15.925781 29.664062 15.898438 29.683594 15.855469 29.707031 C 15.855469 29.730469 15.855469 29.75 15.855469 29.769531 C 15.839844 29.769531 15.828125 29.769531 15.8125 29.769531 C 15.8125 29.785156 15.8125 29.796875 15.8125 29.8125 C 15.796875 29.8125 15.785156 29.8125 15.769531 29.8125 C 15.765625 29.828125 15.757812 29.84375 15.75 29.863281 C 15.730469 29.917969 15.730469 29.917969 15.707031 29.957031 C 15.695312 29.957031 15.679688 29.957031 15.667969 29.957031 C 15.667969 29.980469 15.667969 30 15.667969 30.019531 C 15.652344 30.019531 15.640625 30.019531 15.625 30.019531 C 15.625 30.035156 15.625 30.046875 15.625 30.0625 C 15.609375 30.0625 15.597656 30.0625 15.582031 30.0625 C 15.578125 30.078125 15.570312 30.09375 15.566406 30.113281 C 15.542969 30.167969 15.542969 30.167969 15.5 30.207031 C 15.488281 30.25 15.488281 30.25 15.480469 30.292969 C 15.464844 30.292969 15.453125 30.292969 15.4375 30.292969 C 15.4375 30.304688 15.4375 30.320312 15.4375 30.332031 C 15.421875 30.339844 15.410156 30.347656 15.394531 30.355469 C 15.382812 30.394531 15.382812 30.394531 15.375 30.4375 C 15.359375 30.4375 15.347656 30.4375 15.332031 30.4375 C 15.332031 30.453125 15.332031 30.464844 15.332031 30.480469 C 15.320312 30.480469 15.304688 30.480469 15.292969 30.480469 C 15.277344 30.511719 15.265625 30.546875 15.25 30.582031 C 15.234375 30.582031 15.222656 30.582031 15.207031 30.582031 C 15.203125 30.617188 15.195312 30.652344 15.1875 30.6875 C 15.171875 30.6875 15.160156 30.6875 15.144531 30.6875 C 15.144531 30.703125 15.144531 30.714844 15.144531 30.730469 C 15.132812 30.730469 15.117188 30.730469 15.105469 30.730469 C 15.105469 30.757812 15.105469 30.785156 15.105469 30.8125 C 15.089844 30.8125 15.078125 30.8125 15.0625 30.8125 C 15.0625 30.828125 15.0625 30.839844 15.0625 30.855469 C 15.046875 30.859375 15.035156 30.867188 15.019531 30.875 C 15.007812 30.90625 15.007812 30.90625 14.992188 30.9375 C 14.957031 31 14.957031 31 14.914062 31.019531 C 14.894531 31.019531 14.894531 31.019531 14.875 31.019531 C 14.875 31.046875 14.875 31.074219 14.875 31.105469 C 14.859375 31.105469 14.847656 31.105469 14.832031 31.105469 C 14.828125 31.132812 14.820312 31.160156 14.8125 31.1875 C 14.796875 31.1875 14.785156 31.1875 14.769531 31.1875 C 14.769531 31.207031 14.769531 31.230469 14.769531 31.25 C 14.757812 31.25 14.742188 31.25 14.730469 31.25 C 14.730469 31.265625 14.730469 31.277344 14.730469 31.292969 C 14.714844 31.292969 14.703125 31.292969 14.6875 31.292969 C 14.679688 31.324219 14.671875 31.359375 14.667969 31.394531 C 14.652344 31.394531 14.640625 31.394531 14.625 31.394531 C 14.625 31.410156 14.625 31.421875 14.625 31.4375 C 14.609375 31.4375 14.597656 31.4375 14.582031 31.4375 C 14.582031 31.464844 14.582031 31.492188 14.582031 31.519531 C 14.554688 31.542969 14.527344 31.5625 14.5 31.582031 C 14.484375 31.628906 14.484375 31.628906 14.480469 31.667969 C 14.464844 31.667969 14.453125 31.667969 14.4375 31.667969 C 14.4375 31.679688 14.4375 31.695312 14.4375 31.707031 C 14.421875 31.707031 14.410156 31.707031 14.394531 31.707031 C 14.394531 31.730469 14.394531 31.75 14.394531 31.769531 C 14.382812 31.769531 14.367188 31.769531 14.355469 31.769531 C 14.355469 31.785156 14.355469 31.796875 14.355469 31.8125 C 14.339844 31.8125 14.328125 31.8125 14.3125 31.8125 C 14.304688 31.847656 14.296875 31.882812 14.292969 31.917969 C 14.277344 31.917969 14.265625 31.917969 14.25 31.917969 C 14.25 31.929688 14.25 31.945312 14.25 31.957031 C 14.234375 31.957031 14.222656 31.957031 14.207031 31.957031 C 14.207031 31.984375 14.207031 32.011719 14.207031 32.042969 C 14.195312 32.042969 14.179688 32.042969 14.167969 32.042969 C 14.167969 32.054688 14.167969 32.070312 14.167969 32.082031 C 14.152344 32.089844 14.140625 32.097656 14.125 32.105469 C 14.113281 32.144531 14.113281 32.144531 14.105469 32.1875 C 14.089844 32.1875 14.078125 32.1875 14.0625 32.1875 C 14.0625 32.203125 14.0625 32.214844 14.0625 32.230469 C 14.046875 32.230469 14.035156 32.230469 14.019531 32.230469 C 14.015625 32.246094 14.007812 32.261719 14 32.277344 C 13.980469 32.332031 13.980469 32.332031 13.957031 32.375 C 13.945312 32.375 13.929688 32.375 13.917969 32.375 C 13.902344 32.410156 13.890625 32.445312 13.875 32.480469 C 13.859375 32.480469 13.847656 32.480469 13.832031 32.480469 C 13.828125 32.5 13.820312 32.519531 13.816406 32.539062 C 13.808594 32.5625 13.800781 32.582031 13.792969 32.605469 C 13.769531 32.609375 13.75 32.617188 13.730469 32.625 C 13.714844 32.667969 13.699219 32.707031 13.6875 32.75 C 13.652344 32.789062 13.628906 32.808594 13.582031 32.832031 C 13.582031 32.855469 13.582031 32.875 13.582031 32.894531 C 13.519531 32.929688 13.453125 32.917969 13.382812 32.917969 C 13.363281 32.917969 13.347656 32.917969 13.328125 32.917969 C 13.273438 32.917969 13.214844 32.917969 13.160156 32.917969 C 13.117188 32.917969 13.078125 32.917969 13.035156 32.917969 C 12.921875 32.917969 12.808594 32.917969 12.695312 32.917969 C 12.574219 32.917969 12.449219 32.917969 12.328125 32.917969 C 12.117188 32.917969 11.90625 32.917969 11.691406 32.917969 C 11.472656 32.917969 11.25 32.917969 11.027344 32.917969 C 11.011719 32.917969 11 32.917969 10.984375 32.917969 C 10.914062 32.917969 10.84375 32.917969 10.773438 32.917969 C 10.277344 32.917969 9.78125 32.917969 9.285156 32.917969 C 8.800781 32.917969 8.320312 32.917969 7.835938 32.917969 C 7.820312 32.917969 7.804688 32.917969 7.789062 32.917969 C 7.640625 32.917969 7.492188 32.917969 7.34375 32.917969 C 7.039062 32.917969 6.734375 32.917969 6.429688 32.917969 C 6.414062 32.917969 6.402344 32.917969 6.386719 32.917969 C 5.453125 32.917969 4.519531 32.917969 3.582031 32.917969 C 3.589844 32.882812 3.597656 32.847656 3.605469 32.8125 C 3.632812 32.8125 3.660156 32.8125 3.6875 32.8125 C 3.6875 32.796875 3.6875 32.785156 3.6875 32.769531 C 3.804688 32.707031 3.804688 32.707031 3.875 32.707031 C 3.875 32.695312 3.875 32.679688 3.875 32.667969 C 3.902344 32.667969 3.929688 32.667969 3.957031 32.667969 C 3.957031 32.652344 3.957031 32.640625 3.957031 32.625 C 3.992188 32.617188 4.027344 32.609375 4.0625 32.605469 C 4.0625 32.589844 4.0625 32.578125 4.0625 32.5625 C 4.089844 32.5625 4.117188 32.5625 4.144531 32.5625 C 4.144531 32.546875 4.144531 32.535156 4.144531 32.519531 C 4.167969 32.519531 4.1875 32.519531 4.207031 32.519531 C 4.207031 32.507812 4.207031 32.492188 4.207031 32.480469 C 4.230469 32.480469 4.25 32.480469 4.269531 32.480469 C 4.269531 32.464844 4.269531 32.453125 4.269531 32.4375 C 4.3125 32.429688 4.351562 32.421875 4.394531 32.417969 C 4.394531 32.402344 4.394531 32.390625 4.394531 32.375 C 4.421875 32.375 4.449219 32.375 4.480469 32.375 C 4.480469 32.359375 4.480469 32.347656 4.480469 32.332031 C 4.492188 32.332031 4.507812 32.332031 4.519531 32.332031 C 4.519531 32.320312 4.519531 32.304688 4.519531 32.292969 C 4.542969 32.292969 4.5625 32.292969 4.582031 32.292969 C 4.582031 32.277344 4.582031 32.265625 4.582031 32.25 C 4.632812 32.242188 4.679688 32.234375 4.730469 32.230469 C 4.730469 32.214844 4.730469 32.203125 4.730469 32.1875 C 4.757812 32.1875 4.785156 32.1875 4.8125 32.1875 C 4.8125 32.171875 4.8125 32.160156 4.8125 32.144531 C 4.828125 32.144531 4.839844 32.144531 4.855469 32.144531 C 4.855469 32.132812 4.855469 32.117188 4.855469 32.105469 C 4.878906 32.09375 4.902344 32.085938 4.925781 32.074219 C 5 32.046875 5 32.046875 5.042969 32 C 5.0625 32 5.082031 32 5.105469 32 C 5.105469 31.984375 5.105469 31.972656 5.105469 31.957031 C 5.132812 31.957031 5.160156 31.957031 5.1875 31.957031 C 5.1875 31.945312 5.1875 31.929688 5.1875 31.917969 C 5.222656 31.910156 5.257812 31.902344 5.292969 31.894531 C 5.292969 31.882812 5.292969 31.867188 5.292969 31.855469 C 5.355469 31.8125 5.355469 31.8125 5.4375 31.8125 C 5.4375 31.796875 5.4375 31.785156 5.4375 31.769531 C 5.457031 31.769531 5.480469 31.769531 5.5 31.769531 C 5.5 31.757812 5.5 31.742188 5.5 31.730469 C 5.542969 31.722656 5.582031 31.714844 5.625 31.707031 C 5.625 31.695312 5.625 31.679688 5.625 31.667969 C 5.652344 31.667969 5.679688 31.667969 5.707031 31.667969 C 5.707031 31.652344 5.707031 31.640625 5.707031 31.625 C 5.722656 31.625 5.734375 31.625 5.75 31.625 C 5.75 31.609375 5.75 31.597656 5.75 31.582031 C 5.78125 31.570312 5.808594 31.554688 5.839844 31.542969 C 5.855469 31.535156 5.871094 31.527344 5.886719 31.519531 C 5.933594 31.503906 5.972656 31.488281 6.019531 31.480469 C 6.019531 31.464844 6.019531 31.453125 6.019531 31.4375 C 6.0625 31.394531 6.089844 31.382812 6.144531 31.363281 C 6.160156 31.355469 6.171875 31.351562 6.1875 31.34375 C 6.230469 31.332031 6.230469 31.332031 6.292969 31.332031 C 6.292969 31.320312 6.292969 31.304688 6.292969 31.292969 C 6.304688 31.292969 6.320312 31.292969 6.332031 31.292969 C 6.332031 31.277344 6.332031 31.265625 6.332031 31.25 C 6.359375 31.25 6.386719 31.25 6.417969 31.25 C 6.417969 31.234375 6.417969 31.222656 6.417969 31.207031 C 6.449219 31.203125 6.484375 31.195312 6.519531 31.1875 C 6.519531 31.171875 6.519531 31.160156 6.519531 31.144531 C 6.574219 31.117188 6.601562 31.105469 6.667969 31.105469 C 6.667969 31.089844 6.667969 31.078125 6.667969 31.0625 C 6.730469 31.035156 6.789062 31.015625 6.855469 31 C 6.855469 30.984375 6.855469 30.972656 6.855469 30.957031 C 6.882812 30.957031 6.910156 30.957031 6.9375 30.957031 C 6.9375 30.945312 6.9375 30.929688 6.9375 30.917969 C 6.957031 30.917969 6.980469 30.917969 7 30.917969 C 7 30.902344 7 30.890625 7 30.875 C 7.117188 30.8125 7.117188 30.8125 7.1875 30.8125 C 7.1875 30.796875 7.1875 30.785156 7.1875 30.769531 C 7.214844 30.769531 7.242188 30.769531 7.269531 30.769531 C 7.269531 30.757812 7.273438 30.746094 7.273438 30.734375 C 7.292969 30.6875 7.292969 30.6875 7.363281 30.652344 C 7.4375 30.625 7.4375 30.625 7.5 30.625 C 7.5 30.609375 7.5 30.597656 7.5 30.582031 C 7.519531 30.582031 7.542969 30.582031 7.5625 30.582031 C 7.5625 30.570312 7.5625 30.554688 7.5625 30.542969 C 7.609375 30.535156 7.660156 30.527344 7.707031 30.519531 C 7.707031 30.507812 7.707031 30.492188 7.707031 30.480469 C 7.730469 30.480469 7.75 30.480469 7.769531 30.480469 C 7.769531 30.464844 7.769531 30.453125 7.769531 30.4375 C 7.785156 30.4375 7.796875 30.4375 7.8125 30.4375 C 7.8125 30.421875 7.8125 30.410156 7.8125 30.394531 C 7.839844 30.394531 7.867188 30.394531 7.894531 30.394531 C 7.894531 30.382812 7.894531 30.367188 7.894531 30.355469 C 7.957031 30.328125 8.019531 30.304688 8.082031 30.292969 C 8.082031 30.277344 8.082031 30.265625 8.082031 30.25 C 8.144531 30.207031 8.144531 30.207031 8.230469 30.207031 C 8.230469 30.195312 8.230469 30.179688 8.230469 30.167969 C 8.347656 30.105469 8.347656 30.105469 8.417969 30.105469 C 8.417969 30.089844 8.417969 30.078125 8.417969 30.0625 C 8.445312 30.0625 8.472656 30.0625 8.5 30.0625 C 8.5 30.046875 8.5 30.035156 8.5 30.019531 C 8.535156 30.015625 8.570312 30.007812 8.605469 30 C 8.605469 29.984375 8.605469 29.972656 8.605469 29.957031 C 8.660156 29.929688 8.683594 29.917969 8.75 29.917969 C 8.75 29.902344 8.75 29.890625 8.75 29.875 C 8.769531 29.875 8.792969 29.875 8.8125 29.875 C 8.8125 29.859375 8.8125 29.847656 8.8125 29.832031 C 8.855469 29.828125 8.894531 29.820312 8.9375 29.8125 C 8.9375 29.796875 8.9375 29.785156 8.9375 29.769531 C 8.953125 29.765625 8.964844 29.757812 8.980469 29.75 C 8.984375 25.839844 8.992188 21.925781 9 17.894531 C 10.8125 17.894531 10.8125 17.894531 10.9375 17.9375 C 10.9375 17.953125 10.9375 17.964844 10.9375 17.980469 C 11 17.984375 11.0625 17.992188 11.125 18 C 11.125 18.015625 11.125 18.027344 11.125 18.042969 C 11.140625 18.042969 11.152344 18.042969 11.167969 18.042969 C 11.171875 18.398438 11.179688 18.757812 11.1875 19.125 C 11.230469 19.125 11.269531 19.125 11.3125 19.125 C 11.3125 19.140625 11.3125 19.152344 11.3125 19.167969 C 11.347656 19.167969 11.382812 19.167969 11.417969 19.167969 C 11.417969 19.179688 11.417969 19.195312 11.417969 19.207031 C 11.492188 19.214844 11.566406 19.222656 11.644531 19.230469 C 11.644531 19.242188 11.644531 19.257812 11.644531 19.269531 C 11.679688 19.269531 11.714844 19.269531 11.75 19.269531 C 11.75 19.285156 11.75 19.296875 11.75 19.3125 C 11.777344 19.3125 11.804688 19.3125 11.832031 19.3125 C 11.824219 16.414062 11.824219 16.414062 11.8125 13.457031 C 10.050781 13.449219 10.050781 13.449219 8.25 13.4375 C 8.25 13.453125 8.25 13.464844 8.25 13.480469 C 8.234375 13.480469 8.222656 13.480469 8.207031 13.480469 C 8.207031 13.464844 8.207031 13.453125 8.207031 13.4375 C 8.1875 13.4375 8.167969 13.4375 8.144531 13.4375 C 8.144531 13.019531 8.144531 12.597656 8.144531 12.167969 C 8.167969 12.167969 8.1875 12.167969 8.207031 12.167969 C 8.207031 12.152344 8.207031 12.140625 8.207031 12.125 C 8.222656 12.125 8.234375 12.125 8.25 12.125 C 8.25 12.140625 8.25 12.152344 8.25 12.167969 C 9.046875 12.167969 9.84375 12.167969 10.667969 12.167969 C 10.671875 11.972656 10.679688 11.78125 10.6875 11.582031 C 10.820312 11.582031 10.933594 11.585938 11.0625 11.605469 C 11.0625 11.617188 11.0625 11.632812 11.0625 11.644531 C 11.117188 11.644531 11.171875 11.644531 11.230469 11.644531 C 11.230469 11.660156 11.230469 11.671875 11.230469 11.6875 C 11.257812 11.6875 11.285156 11.6875 11.3125 11.6875 C 11.339844 11.6875 11.367188 11.6875 11.394531 11.6875 C 11.402344 11.695312 11.410156 11.703125 11.417969 11.707031 C 11.472656 11.714844 11.527344 11.722656 11.585938 11.730469 C 11.601562 11.730469 11.617188 11.734375 11.632812 11.734375 C 11.671875 11.742188 11.710938 11.746094 11.75 11.75 C 11.75 11.765625 11.75 11.777344 11.75 11.792969 C 11.777344 11.792969 11.804688 11.792969 11.832031 11.792969 C 11.832031 11.660156 11.832031 11.53125 11.832031 11.394531 C 11.804688 11.382812 11.777344 11.367188 11.75 11.355469 C 11.757812 11.328125 11.765625 11.300781 11.769531 11.269531 C 11.757812 11.269531 11.742188 11.269531 11.730469 11.269531 C 11.730469 11.25 11.730469 11.230469 11.730469 11.207031 C 11.714844 11.207031 11.703125 11.207031 11.6875 11.207031 C 11.6875 11.195312 11.6875 11.179688 11.6875 11.167969 C 11.671875 11.167969 11.660156 11.167969 11.644531 11.167969 C 11.644531 11.140625 11.644531 11.113281 11.644531 11.082031 C 11.632812 11.082031 11.617188 11.082031 11.605469 11.082031 C 11.597656 11.050781 11.589844 11.015625 11.582031 10.980469 C 11.570312 10.980469 11.554688 10.980469 11.542969 10.980469 C 11.542969 10.953125 11.542969 10.925781 11.542969 10.894531 C 11.515625 10.882812 11.488281 10.867188 11.457031 10.855469 C 11.457031 10.832031 11.457031 10.8125 11.457031 10.792969 C 11.445312 10.792969 11.429688 10.792969 11.417969 10.792969 C 11.414062 10.78125 11.410156 10.769531 11.410156 10.757812 C 11.394531 10.699219 11.394531 10.699219 11.355469 10.605469 C 10.199219 10.605469 9.042969 10.605469 7.855469 10.605469 C 7.855469 10.589844 7.855469 10.578125 7.855469 10.5625 C 7.839844 10.5625 7.828125 10.5625 7.8125 10.5625 C 7.8125 10.515625 7.8125 10.464844 7.8125 10.417969 C 7.796875 10.417969 7.785156 10.417969 7.769531 10.417969 C 7.726562 10.21875 7.726562 10.21875 7.707031 10.125 C 7.695312 10.125 7.679688 10.125 7.667969 10.125 C 7.667969 10.082031 7.667969 10.042969 7.667969 10 C 7.652344 10 7.640625 10 7.625 10 C 7.625 9.957031 7.625 9.917969 7.625 9.875 C 7.609375 9.875 7.597656 9.875 7.582031 9.875 C 7.578125 9.804688 7.570312 9.738281 7.5625 9.667969 C 7.546875 9.667969 7.535156 9.667969 7.519531 9.667969 C 7.519531 9.632812 7.519531 9.597656 7.519531 9.5625 C 7.507812 9.5625 7.492188 9.5625 7.480469 9.5625 C 7.480469 9.515625 7.480469 9.464844 7.480469 9.417969 C 7.464844 9.417969 7.453125 9.417969 7.4375 9.417969 C 7.4375 9.367188 7.4375 9.320312 7.4375 9.269531 Z M 14.167969 10.605469 C 14.179688 10.652344 14.195312 10.699219 14.207031 10.75 C 14.222656 10.75 14.234375 10.75 14.25 10.75 C 14.25 10.777344 14.25 10.804688 14.25 10.832031 C 14.265625 10.832031 14.277344 10.832031 14.292969 10.832031 C 14.292969 10.867188 14.292969 10.902344 14.292969 10.9375 C 14.304688 10.9375 14.320312 10.9375 14.332031 10.9375 C 14.339844 11 14.347656 11.0625 14.355469 11.125 C 14.367188 11.125 14.382812 11.125 14.394531 11.125 C 14.394531 11.152344 14.394531 11.179688 14.394531 11.207031 C 14.410156 11.207031 14.421875 11.207031 14.4375 11.207031 C 14.4375 11.230469 14.4375 11.25 14.4375 11.269531 C 14.453125 11.269531 14.464844 11.269531 14.480469 11.269531 C 14.480469 11.320312 14.480469 11.367188 14.480469 11.417969 C 14.265625 11.417969 14.054688 11.417969 13.832031 11.417969 C 13.832031 11.566406 13.832031 11.71875 13.832031 11.875 C 13.847656 11.875 13.859375 11.875 13.875 11.875 C 13.875 11.859375 13.875 11.847656 13.875 11.832031 C 13.929688 11.832031 13.984375 11.832031 14.042969 11.832031 C 14.042969 11.820312 14.042969 11.804688 14.042969 11.792969 C 14.105469 11.792969 14.164062 11.792969 14.230469 11.792969 C 14.230469 11.777344 14.230469 11.765625 14.230469 11.75 C 14.394531 11.738281 14.394531 11.738281 14.5625 11.730469 C 14.5625 11.714844 14.5625 11.703125 14.5625 11.6875 C 14.617188 11.6875 14.671875 11.6875 14.730469 11.6875 C 14.730469 11.671875 14.730469 11.660156 14.730469 11.644531 C 14.792969 11.644531 14.851562 11.644531 14.917969 11.644531 C 14.917969 11.632812 14.917969 11.617188 14.917969 11.605469 C 15.039062 11.597656 15.164062 11.589844 15.292969 11.582031 C 15.292969 11.777344 15.292969 11.96875 15.292969 12.167969 C 16.550781 12.167969 17.808594 12.167969 19.105469 12.167969 C 19.105469 12.152344 19.105469 12.140625 19.105469 12.125 C 19.117188 12.125 19.132812 12.125 19.144531 12.125 C 19.144531 12.140625 19.144531 12.152344 19.144531 12.167969 C 19.1875 12.167969 19.226562 12.167969 19.269531 12.167969 C 19.269531 11.652344 19.269531 11.136719 19.269531 10.605469 C 17.585938 10.605469 15.902344 10.605469 14.167969 10.605469 Z M 21.019531 10.605469 C 21.019531 11.121094 21.019531 11.636719 21.019531 12.167969 C 22.332031 12.167969 23.648438 12.167969 25 12.167969 C 25 11.972656 25 11.78125 25 11.582031 C 25.125 11.589844 25.246094 11.597656 25.375 11.605469 C 25.375 11.617188 25.375 11.632812 25.375 11.644531 C 25.394531 11.648438 25.394531 11.648438 25.414062 11.648438 C 25.433594 11.652344 25.449219 11.652344 25.46875 11.65625 C 25.484375 11.65625 25.5 11.660156 25.519531 11.660156 C 25.5625 11.667969 25.5625 11.667969 25.582031 11.6875 C 25.605469 11.691406 25.632812 11.695312 25.65625 11.699219 C 25.730469 11.707031 25.730469 11.707031 25.75 11.730469 C 25.800781 11.738281 25.855469 11.746094 25.90625 11.75 C 25.921875 11.753906 25.9375 11.753906 25.953125 11.757812 C 25.988281 11.761719 26.027344 11.765625 26.0625 11.769531 C 26.0625 11.777344 26.0625 11.785156 26.0625 11.792969 C 26.097656 11.792969 26.132812 11.792969 26.167969 11.792969 C 26.167969 11.710938 26.167969 11.632812 26.167969 11.554688 C 26.167969 11.53125 26.167969 11.507812 26.167969 11.488281 C 26.167969 11.464844 26.167969 11.445312 26.167969 11.421875 C 26.167969 11.402344 26.167969 11.382812 26.167969 11.359375 C 26.171875 11.3125 26.171875 11.3125 26.144531 11.269531 C 25.84375 11.269531 25.539062 11.269531 25.230469 11.269531 C 25.230469 11.238281 25.230469 11.203125 25.230469 11.167969 C 25.242188 11.167969 25.257812 11.167969 25.269531 11.167969 C 25.269531 11.152344 25.269531 11.140625 25.269531 11.125 C 25.285156 11.125 25.296875 11.125 25.3125 11.125 C 25.320312 11.078125 25.328125 11.027344 25.332031 10.980469 C 25.347656 10.980469 25.359375 10.980469 25.375 10.980469 C 25.390625 10.957031 25.402344 10.933594 25.417969 10.910156 C 25.429688 10.890625 25.429688 10.890625 25.441406 10.871094 C 25.460938 10.832031 25.460938 10.832031 25.457031 10.792969 C 25.472656 10.785156 25.484375 10.777344 25.5 10.769531 C 25.515625 10.707031 25.515625 10.707031 25.519531 10.644531 C 25.542969 10.640625 25.5625 10.632812 25.582031 10.625 C 25.582031 10.617188 25.582031 10.609375 25.582031 10.605469 C 24.078125 10.605469 22.570312 10.605469 21.019531 10.605469 Z M 11.167969 20.3125 C 11.167969 22.246094 11.167969 24.175781 11.167969 26.167969 C 11.214844 26.152344 11.261719 26.140625 11.3125 26.125 C 11.3125 26.109375 11.3125 26.097656 11.3125 26.082031 C 11.347656 26.082031 11.382812 26.082031 11.417969 26.082031 C 11.417969 26.070312 11.417969 26.054688 11.417969 26.042969 C 11.449219 26.042969 11.484375 26.042969 11.519531 26.042969 C 11.519531 26.035156 11.519531 26.027344 11.519531 26.019531 C 11.582031 26.007812 11.644531 25.992188 11.707031 25.980469 C 11.707031 25.964844 11.707031 25.953125 11.707031 25.9375 C 11.742188 25.9375 11.777344 25.9375 11.8125 25.9375 C 11.835938 25.886719 11.835938 25.859375 11.835938 25.804688 C 11.835938 25.777344 11.835938 25.777344 11.835938 25.75 C 11.835938 25.726562 11.835938 25.707031 11.835938 25.683594 C 11.835938 25.652344 11.835938 25.652344 11.835938 25.617188 C 11.835938 25.542969 11.835938 25.46875 11.835938 25.390625 C 11.835938 25.339844 11.835938 25.285156 11.835938 25.230469 C 11.835938 25.117188 11.835938 25 11.835938 24.882812 C 11.835938 24.71875 11.835938 24.550781 11.835938 24.382812 C 11.835938 24.113281 11.835938 23.839844 11.835938 23.570312 C 11.835938 23.304688 11.835938 23.042969 11.835938 22.777344 C 11.835938 22.761719 11.835938 22.746094 11.835938 22.730469 C 11.835938 22.648438 11.835938 22.566406 11.835938 22.484375 C 11.835938 21.808594 11.832031 21.132812 11.832031 20.457031 C 11.726562 20.441406 11.628906 20.4375 11.519531 20.4375 C 11.519531 20.421875 11.519531 20.410156 11.519531 20.394531 C 11.464844 20.394531 11.410156 20.394531 11.355469 20.394531 C 11.355469 20.382812 11.355469 20.367188 11.355469 20.355469 C 11.300781 20.355469 11.246094 20.355469 11.1875 20.355469 C 11.179688 20.339844 11.171875 20.328125 11.167969 20.3125 Z M 28.855469 20.3125 C 28.855469 20.328125 28.855469 20.339844 28.855469 20.355469 C 28.804688 20.355469 28.757812 20.355469 28.707031 20.355469 C 28.707031 20.367188 28.707031 20.382812 28.707031 20.394531 C 28.644531 20.394531 28.585938 20.394531 28.519531 20.394531 C 28.519531 20.410156 28.519531 20.421875 28.519531 20.4375 C 28.507812 20.4375 28.496094 20.4375 28.484375 20.4375 C 28.382812 20.4375 28.285156 20.4375 28.1875 20.457031 C 28.164062 20.507812 28.164062 20.535156 28.164062 20.589844 C 28.164062 20.609375 28.164062 20.628906 28.164062 20.648438 C 28.164062 20.667969 28.164062 20.6875 28.164062 20.710938 C 28.164062 20.730469 28.164062 20.753906 28.164062 20.777344 C 28.164062 20.851562 28.164062 20.925781 28.164062 21 C 28.164062 21.054688 28.164062 21.105469 28.164062 21.160156 C 28.164062 21.273438 28.164062 21.390625 28.164062 21.503906 C 28.164062 21.667969 28.164062 21.835938 28.164062 22 C 28.164062 22.269531 28.164062 22.539062 28.164062 22.808594 C 28.164062 23.070312 28.164062 23.332031 28.164062 23.59375 C 28.164062 23.609375 28.164062 23.625 28.164062 23.640625 C 28.164062 23.722656 28.164062 23.804688 28.164062 23.882812 C 28.164062 24.554688 28.167969 25.226562 28.167969 25.894531 C 28.1875 25.894531 28.207031 25.894531 28.230469 25.894531 C 28.230469 25.910156 28.230469 25.921875 28.230469 25.9375 C 28.257812 25.9375 28.285156 25.9375 28.3125 25.9375 C 28.3125 25.953125 28.3125 25.964844 28.3125 25.980469 C 28.375 25.984375 28.4375 25.992188 28.5 26 C 28.5 26.015625 28.5 26.027344 28.5 26.042969 C 28.535156 26.042969 28.570312 26.042969 28.605469 26.042969 C 28.605469 26.054688 28.605469 26.070312 28.605469 26.082031 C 28.636719 26.082031 28.671875 26.082031 28.707031 26.082031 C 28.707031 26.097656 28.707031 26.109375 28.707031 26.125 C 28.769531 26.152344 28.808594 26.167969 28.875 26.167969 C 28.875 24.234375 28.875 22.304688 28.875 20.3125 C 28.867188 20.3125 28.859375 20.3125 28.855469 20.3125 Z M 13.832031 20.957031 C 13.832031 22.332031 13.832031 23.707031 13.832031 25.125 C 13.886719 25.105469 13.886719 25.105469 13.9375 25.082031 C 13.9375 25.070312 13.9375 25.054688 13.9375 25.042969 C 13.972656 25.042969 14.007812 25.042969 14.042969 25.042969 C 14.042969 25.027344 14.042969 25.015625 14.042969 25 C 14.054688 24.992188 14.070312 24.984375 14.082031 24.980469 C 14.117188 24.945312 14.105469 24.898438 14.105469 24.851562 C 14.105469 24.835938 14.105469 24.824219 14.105469 24.804688 C 14.105469 24.789062 14.105469 24.773438 14.105469 24.757812 C 14.105469 24.703125 14.105469 24.648438 14.105469 24.59375 C 14.105469 24.554688 14.105469 24.519531 14.105469 24.480469 C 14.109375 24.375 14.109375 24.269531 14.109375 24.164062 C 14.109375 24.074219 14.109375 23.988281 14.109375 23.898438 C 14.109375 23.691406 14.109375 23.484375 14.109375 23.277344 C 14.109375 23.0625 14.109375 22.847656 14.109375 22.632812 C 14.109375 22.449219 14.109375 22.265625 14.109375 22.082031 C 14.109375 21.972656 14.109375 21.863281 14.109375 21.753906 C 14.109375 21.652344 14.109375 21.546875 14.109375 21.445312 C 14.109375 21.40625 14.109375 21.367188 14.109375 21.332031 C 14.109375 21.277344 14.109375 21.226562 14.109375 21.175781 C 14.109375 21.160156 14.109375 21.144531 14.109375 21.128906 C 14.113281 21.042969 14.113281 21.042969 14.0625 20.980469 C 13.988281 20.972656 13.910156 20.964844 13.832031 20.957031 Z M 25.957031 20.980469 C 25.921875 21.015625 25.933594 21.058594 25.933594 21.105469 C 25.933594 21.121094 25.933594 21.136719 25.933594 21.15625 C 25.933594 21.171875 25.933594 21.1875 25.933594 21.203125 C 25.933594 21.257812 25.933594 21.3125 25.933594 21.371094 C 25.933594 21.410156 25.933594 21.449219 25.933594 21.488281 C 25.933594 21.59375 25.933594 21.703125 25.933594 21.808594 C 25.933594 21.921875 25.933594 22.035156 25.9375 22.144531 C 25.9375 22.359375 25.9375 22.570312 25.9375 22.78125 C 25.9375 23.023438 25.9375 23.265625 25.9375 23.507812 C 25.9375 24.003906 25.9375 24.503906 25.9375 25 C 25.957031 25 25.980469 25 26 25 C 26 25.015625 26 25.027344 26 25.042969 C 26.027344 25.042969 26.054688 25.042969 26.082031 25.042969 C 26.082031 25.054688 26.082031 25.070312 26.082031 25.082031 C 26.109375 25.082031 26.136719 25.082031 26.167969 25.082031 C 26.167969 23.722656 26.167969 22.359375 26.167969 20.957031 C 26.097656 20.957031 26.027344 20.96875 25.957031 20.980469 Z M 25.894531 25.832031 C 25.894531 25.984375 25.894531 26.132812 25.894531 26.285156 C 25.894531 26.335938 25.894531 26.386719 25.894531 26.4375 C 25.890625 26.511719 25.890625 26.585938 25.890625 26.660156 C 25.890625 26.683594 25.890625 26.707031 25.890625 26.730469 C 25.890625 26.75 25.890625 26.773438 25.890625 26.792969 C 25.890625 26.8125 25.890625 26.832031 25.890625 26.851562 C 25.890625 26.898438 25.890625 26.898438 25.9375 26.9375 C 25.9375 26.921875 25.9375 26.910156 25.9375 26.894531 C 25.984375 26.894531 26.035156 26.894531 26.082031 26.894531 C 26.082031 26.910156 26.082031 26.921875 26.082031 26.9375 C 26.105469 26.9375 26.125 26.9375 26.144531 26.9375 C 26.152344 26.953125 26.160156 26.964844 26.167969 26.980469 C 26.167969 26.648438 26.167969 26.320312 26.167969 25.980469 C 26.144531 25.980469 26.125 25.980469 26.105469 25.980469 C 26.105469 25.964844 26.105469 25.953125 26.105469 25.9375 C 26.082031 25.9375 26.0625 25.9375 26.042969 25.9375 C 26.042969 25.921875 26.042969 25.910156 26.042969 25.894531 C 26.019531 25.894531 26 25.894531 25.980469 25.894531 C 25.980469 25.882812 25.980469 25.867188 25.980469 25.855469 C 25.953125 25.847656 25.925781 25.839844 25.894531 25.832031 Z M 14.0625 25.855469 C 14.0625 25.867188 14.0625 25.882812 14.0625 25.894531 C 14.035156 25.894531 14.007812 25.894531 13.980469 25.894531 C 13.980469 25.910156 13.980469 25.921875 13.980469 25.9375 C 13.957031 25.9375 13.9375 25.9375 13.917969 25.9375 C 13.917969 25.953125 13.917969 25.964844 13.917969 25.980469 C 13.890625 25.980469 13.863281 25.980469 13.832031 25.980469 C 13.832031 26.308594 13.832031 26.640625 13.832031 26.980469 C 13.839844 26.964844 13.847656 26.953125 13.855469 26.9375 C 13.875 26.9375 13.894531 26.9375 13.917969 26.9375 C 13.917969 26.921875 13.917969 26.910156 13.917969 26.894531 C 13.980469 26.894531 14.039062 26.894531 14.105469 26.894531 C 14.105469 26.550781 14.105469 26.207031 14.105469 25.855469 C 14.089844 25.855469 14.078125 25.855469 14.0625 25.855469 Z M 28.167969 27.125 C 28.167969 27.453125 28.167969 27.785156 28.167969 28.125 C 28.1875 28.125 28.207031 28.125 28.230469 28.125 C 28.230469 28.140625 28.230469 28.152344 28.230469 28.167969 C 28.242188 28.167969 28.257812 28.167969 28.269531 28.167969 C 28.269531 28.179688 28.269531 28.195312 28.269531 28.207031 C 28.296875 28.207031 28.324219 28.207031 28.355469 28.207031 C 28.355469 28.222656 28.355469 28.234375 28.355469 28.25 C 28.394531 28.257812 28.4375 28.265625 28.480469 28.269531 C 28.480469 28.285156 28.480469 28.296875 28.480469 28.3125 C 28.5 28.3125 28.519531 28.3125 28.542969 28.3125 C 28.542969 28.328125 28.542969 28.339844 28.542969 28.355469 C 28.5625 28.355469 28.582031 28.355469 28.605469 28.355469 C 28.605469 28.367188 28.605469 28.382812 28.605469 28.394531 C 28.691406 28.445312 28.691406 28.445312 28.792969 28.457031 C 28.792969 28.472656 28.792969 28.484375 28.792969 28.5 C 28.8125 28.5 28.832031 28.5 28.855469 28.5 C 28.859375 28.515625 28.867188 28.527344 28.875 28.542969 C 28.875 28.199219 28.875 27.855469 28.875 27.5 C 28.859375 27.5 28.847656 27.5 28.832031 27.5 C 28.832031 27.484375 28.832031 27.472656 28.832031 27.457031 C 28.8125 27.457031 28.792969 27.457031 28.769531 27.457031 C 28.769531 27.445312 28.769531 27.429688 28.769531 27.417969 C 28.742188 27.417969 28.714844 27.417969 28.6875 27.417969 C 28.6875 27.402344 28.6875 27.390625 28.6875 27.375 C 28.667969 27.367188 28.648438 27.363281 28.628906 27.355469 C 28.585938 27.339844 28.542969 27.328125 28.5 27.3125 C 28.5 27.296875 28.5 27.285156 28.5 27.269531 C 28.480469 27.269531 28.457031 27.269531 28.4375 27.269531 C 28.4375 27.257812 28.4375 27.242188 28.4375 27.230469 C 28.390625 27.222656 28.339844 27.214844 28.292969 27.207031 C 28.292969 27.195312 28.292969 27.179688 28.292969 27.167969 C 28.265625 27.167969 28.238281 27.167969 28.207031 27.167969 C 28.207031 27.152344 28.207031 27.140625 28.207031 27.125 C 28.195312 27.125 28.179688 27.125 28.167969 27.125 Z M 11.8125 27.125 C 11.8125 27.140625 11.8125 27.152344 11.8125 27.167969 C 11.792969 27.167969 11.769531 27.167969 11.75 27.167969 C 11.75 27.179688 11.75 27.195312 11.75 27.207031 C 11.703125 27.214844 11.652344 27.222656 11.605469 27.230469 C 11.605469 27.242188 11.605469 27.257812 11.605469 27.269531 C 11.578125 27.269531 11.550781 27.269531 11.519531 27.269531 C 11.519531 27.285156 11.519531 27.296875 11.519531 27.3125 C 11.5 27.3125 11.480469 27.3125 11.457031 27.3125 C 11.457031 27.328125 11.457031 27.339844 11.457031 27.355469 C 11.441406 27.355469 11.425781 27.359375 11.410156 27.363281 C 11.359375 27.375 11.316406 27.390625 11.269531 27.417969 C 11.269531 27.429688 11.269531 27.445312 11.269531 27.457031 C 11.242188 27.457031 11.214844 27.457031 11.1875 27.457031 C 11.164062 27.507812 11.164062 27.539062 11.164062 27.597656 C 11.164062 27.617188 11.164062 27.636719 11.164062 27.65625 C 11.164062 27.679688 11.164062 27.699219 11.164062 27.722656 C 11.164062 27.746094 11.164062 27.765625 11.164062 27.789062 C 11.164062 27.859375 11.164062 27.933594 11.164062 28.003906 C 11.164062 28.050781 11.164062 28.097656 11.164062 28.148438 C 11.164062 28.265625 11.167969 28.382812 11.167969 28.5 C 11.179688 28.5 11.195312 28.5 11.207031 28.5 C 11.207031 28.484375 11.207031 28.472656 11.207031 28.457031 C 11.222656 28.457031 11.238281 28.453125 11.253906 28.449219 C 11.308594 28.4375 11.347656 28.421875 11.394531 28.394531 C 11.394531 28.382812 11.394531 28.367188 11.394531 28.355469 C 11.417969 28.355469 11.4375 28.355469 11.457031 28.355469 C 11.457031 28.339844 11.457031 28.328125 11.457031 28.3125 C 11.480469 28.3125 11.5 28.3125 11.519531 28.3125 C 11.519531 28.296875 11.519531 28.285156 11.519531 28.269531 C 11.582031 28.261719 11.582031 28.261719 11.644531 28.25 C 11.644531 28.234375 11.644531 28.222656 11.644531 28.207031 C 11.671875 28.207031 11.699219 28.207031 11.730469 28.207031 C 11.730469 28.195312 11.730469 28.179688 11.730469 28.167969 C 11.742188 28.167969 11.757812 28.167969 11.769531 28.167969 C 11.769531 28.152344 11.769531 28.140625 11.769531 28.125 C 11.792969 28.125 11.8125 28.125 11.832031 28.125 C 11.832031 27.796875 11.832031 27.464844 11.832031 27.125 C 11.828125 27.125 11.820312 27.125 11.8125 27.125 Z M 11.8125 27.125 "/>
<path style=" stroke:none;fill-rule:nonzero;fill:rgb(1.960784%,1.960784%,1.960784%);fill-opacity:1;" d="M 5.855469 7.082031 C 6.113281 7.082031 6.367188 7.085938 6.625 7.105469 C 6.625 7.117188 6.625 7.132812 6.625 7.144531 C 6.648438 7.144531 6.648438 7.144531 6.667969 7.144531 C 6.734375 7.144531 6.796875 7.144531 6.863281 7.144531 C 6.886719 7.144531 6.910156 7.144531 6.933594 7.144531 C 6.953125 7.144531 6.976562 7.144531 6.996094 7.144531 C 7.015625 7.144531 7.039062 7.144531 7.058594 7.144531 C 7.105469 7.144531 7.105469 7.144531 7.125 7.167969 C 7.160156 7.167969 7.191406 7.171875 7.226562 7.171875 C 7.246094 7.171875 7.265625 7.175781 7.285156 7.175781 C 7.320312 7.175781 7.320312 7.175781 7.351562 7.175781 C 7.394531 7.179688 7.4375 7.179688 7.476562 7.179688 C 7.503906 7.183594 7.503906 7.183594 7.535156 7.183594 C 7.582031 7.1875 7.582031 7.1875 7.644531 7.207031 C 7.679688 7.210938 7.714844 7.214844 7.746094 7.214844 C 7.777344 7.214844 7.777344 7.214844 7.808594 7.21875 C 7.839844 7.21875 7.839844 7.21875 7.875 7.21875 C 7.898438 7.21875 7.921875 7.222656 7.945312 7.222656 C 8.015625 7.226562 8.089844 7.226562 8.160156 7.230469 C 8.210938 7.230469 8.257812 7.234375 8.308594 7.234375 C 8.425781 7.242188 8.546875 7.246094 8.667969 7.25 C 8.667969 7.257812 8.667969 7.265625 8.667969 7.269531 C 8.683594 7.269531 8.699219 7.273438 8.714844 7.273438 C 8.785156 7.273438 8.855469 7.277344 8.925781 7.28125 C 8.949219 7.28125 8.976562 7.28125 9 7.28125 C 9.023438 7.285156 9.046875 7.285156 9.070312 7.285156 C 9.09375 7.285156 9.113281 7.285156 9.136719 7.289062 C 9.1875 7.292969 9.1875 7.292969 9.207031 7.3125 C 9.25 7.316406 9.292969 7.316406 9.335938 7.320312 C 9.363281 7.320312 9.386719 7.320312 9.414062 7.320312 C 9.441406 7.320312 9.46875 7.320312 9.496094 7.324219 C 9.550781 7.324219 9.605469 7.324219 9.660156 7.328125 C 9.683594 7.328125 9.707031 7.328125 9.730469 7.328125 C 9.792969 7.332031 9.792969 7.332031 9.855469 7.355469 C 9.890625 7.355469 9.925781 7.359375 9.964844 7.359375 C 9.996094 7.359375 9.996094 7.359375 10.03125 7.363281 C 10.054688 7.363281 10.078125 7.363281 10.101562 7.363281 C 10.140625 7.367188 10.140625 7.367188 10.179688 7.367188 C 10.257812 7.371094 10.335938 7.371094 10.414062 7.375 C 10.519531 7.378906 10.625 7.382812 10.726562 7.386719 C 10.75 7.386719 10.773438 7.386719 10.800781 7.386719 C 10.820312 7.386719 10.84375 7.390625 10.867188 7.390625 C 10.898438 7.390625 10.898438 7.390625 10.925781 7.390625 C 10.976562 7.394531 11.015625 7.40625 11.0625 7.417969 C 11.117188 7.417969 11.175781 7.421875 11.230469 7.421875 C 11.246094 7.421875 11.261719 7.425781 11.277344 7.425781 C 11.328125 7.425781 11.382812 7.425781 11.433594 7.429688 C 11.46875 7.429688 11.5 7.429688 11.535156 7.429688 C 11.621094 7.433594 11.707031 7.433594 11.792969 7.4375 C 11.792969 7.445312 11.792969 7.453125 11.792969 7.457031 C 11.8125 7.457031 11.835938 7.460938 11.855469 7.460938 C 11.933594 7.460938 12.015625 7.464844 12.09375 7.464844 C 12.128906 7.46875 12.160156 7.46875 12.195312 7.46875 C 12.246094 7.46875 12.292969 7.472656 12.34375 7.472656 C 12.359375 7.472656 12.375 7.472656 12.390625 7.472656 C 12.496094 7.476562 12.496094 7.476562 12.519531 7.5 C 12.582031 7.503906 12.640625 7.503906 12.703125 7.507812 C 12.71875 7.507812 12.738281 7.507812 12.757812 7.507812 C 12.816406 7.507812 12.875 7.507812 12.933594 7.511719 C 13.007812 7.511719 13.085938 7.511719 13.164062 7.515625 C 13.179688 7.515625 13.199219 7.515625 13.214844 7.515625 C 13.234375 7.515625 13.25 7.515625 13.265625 7.515625 C 13.289062 7.515625 13.289062 7.515625 13.308594 7.519531 C 13.355469 7.519531 13.355469 7.519531 13.398438 7.53125 C 13.484375 7.546875 13.570312 7.546875 13.65625 7.546875 C 13.675781 7.546875 13.699219 7.546875 13.71875 7.550781 C 13.785156 7.550781 13.847656 7.550781 13.914062 7.554688 C 13.960938 7.554688 14.007812 7.554688 14.050781 7.554688 C 14.171875 7.558594 14.292969 7.558594 14.410156 7.5625 C 14.535156 7.566406 14.65625 7.566406 14.78125 7.570312 C 15.019531 7.574219 15.261719 7.578125 15.5 7.582031 C 15.5 7.589844 15.5 7.597656 15.5 7.605469 C 16.203125 7.613281 16.203125 7.613281 16.917969 7.625 C 16.917969 7.640625 16.917969 7.652344 16.917969 7.667969 C 19.253906 7.667969 21.589844 7.667969 24 7.667969 C 24 7.652344 24 7.640625 24 7.625 C 24.453125 7.617188 24.90625 7.609375 25.375 7.605469 C 25.375 7.597656 25.375 7.589844 25.375 7.582031 C 25.398438 7.582031 25.421875 7.582031 25.449219 7.582031 C 25.675781 7.578125 25.902344 7.574219 26.128906 7.566406 C 26.242188 7.566406 26.359375 7.5625 26.476562 7.5625 C 26.589844 7.558594 26.703125 7.554688 26.8125 7.554688 C 26.855469 7.554688 26.898438 7.550781 26.941406 7.550781 C 27.003906 7.550781 27.0625 7.550781 27.121094 7.546875 C 27.140625 7.546875 27.160156 7.546875 27.175781 7.546875 C 27.257812 7.546875 27.335938 7.539062 27.417969 7.519531 C 27.472656 7.519531 27.527344 7.515625 27.585938 7.515625 C 27.601562 7.515625 27.617188 7.515625 27.632812 7.515625 C 27.703125 7.511719 27.769531 7.511719 27.839844 7.507812 C 27.886719 7.507812 27.9375 7.507812 27.988281 7.507812 C 28.003906 7.503906 28.019531 7.503906 28.035156 7.503906 C 28.105469 7.507812 28.105469 7.507812 28.167969 7.480469 C 28.214844 7.476562 28.265625 7.472656 28.316406 7.472656 C 28.328125 7.472656 28.34375 7.472656 28.359375 7.472656 C 28.40625 7.46875 28.453125 7.46875 28.5 7.46875 C 28.535156 7.464844 28.566406 7.464844 28.597656 7.464844 C 28.675781 7.460938 28.753906 7.460938 28.832031 7.457031 C 28.832031 7.453125 28.832031 7.445312 28.832031 7.4375 C 28.855469 7.4375 28.875 7.4375 28.894531 7.4375 C 28.972656 7.433594 29.046875 7.433594 29.125 7.429688 C 29.15625 7.429688 29.191406 7.429688 29.222656 7.425781 C 29.269531 7.425781 29.316406 7.425781 29.363281 7.421875 C 29.378906 7.421875 29.394531 7.421875 29.410156 7.421875 C 29.472656 7.421875 29.523438 7.414062 29.582031 7.394531 C 29.617188 7.394531 29.652344 7.390625 29.683594 7.390625 C 29.707031 7.390625 29.726562 7.386719 29.746094 7.386719 C 29.769531 7.386719 29.792969 7.386719 29.816406 7.386719 C 29.839844 7.382812 29.859375 7.382812 29.882812 7.382812 C 29.984375 7.378906 30.082031 7.375 30.179688 7.371094 C 30.25 7.371094 30.320312 7.367188 30.394531 7.363281 C 30.414062 7.363281 30.4375 7.363281 30.460938 7.363281 C 30.480469 7.363281 30.503906 7.359375 30.523438 7.359375 C 30.550781 7.359375 30.550781 7.359375 30.578125 7.359375 C 30.628906 7.355469 30.628906 7.355469 30.6875 7.332031 C 30.726562 7.332031 30.765625 7.332031 30.804688 7.332031 C 30.824219 7.332031 30.847656 7.332031 30.871094 7.332031 C 30.894531 7.332031 30.917969 7.332031 30.941406 7.332031 C 30.976562 7.332031 30.976562 7.332031 31.011719 7.332031 C 31.070312 7.332031 31.128906 7.332031 31.1875 7.332031 C 31.1875 7.320312 31.1875 7.304688 31.1875 7.292969 C 31.433594 7.28125 31.433594 7.28125 31.6875 7.269531 C 31.6875 7.265625 31.6875 7.257812 31.6875 7.25 C 31.714844 7.25 31.742188 7.246094 31.769531 7.246094 C 31.867188 7.242188 31.96875 7.238281 32.066406 7.234375 C 32.109375 7.230469 32.152344 7.230469 32.199219 7.226562 C 32.257812 7.226562 32.320312 7.222656 32.382812 7.21875 C 32.402344 7.21875 32.421875 7.21875 32.441406 7.21875 C 32.460938 7.214844 32.476562 7.214844 32.496094 7.214844 C 32.511719 7.214844 32.527344 7.214844 32.542969 7.210938 C 32.585938 7.210938 32.585938 7.210938 32.625 7.1875 C 32.65625 7.183594 32.6875 7.183594 32.71875 7.179688 C 32.738281 7.179688 32.753906 7.179688 32.773438 7.179688 C 32.8125 7.179688 32.851562 7.175781 32.890625 7.175781 C 32.910156 7.175781 32.929688 7.171875 32.949219 7.171875 C 32.972656 7.171875 32.972656 7.171875 33 7.171875 C 33.042969 7.167969 33.042969 7.167969 33.082031 7.144531 C 33.113281 7.144531 33.144531 7.144531 33.175781 7.144531 C 33.199219 7.144531 33.199219 7.144531 33.226562 7.144531 C 33.246094 7.144531 33.265625 7.144531 33.285156 7.144531 C 33.300781 7.144531 33.320312 7.144531 33.339844 7.144531 C 33.386719 7.144531 33.433594 7.144531 33.480469 7.144531 C 33.480469 7.132812 33.480469 7.117188 33.480469 7.105469 C 33.703125 7.085938 33.921875 7.082031 34.144531 7.082031 C 34.132812 7.160156 34.121094 7.222656 34.082031 7.292969 C 34.070312 7.292969 34.054688 7.292969 34.042969 7.292969 C 34.042969 7.320312 34.042969 7.347656 34.042969 7.375 C 34.027344 7.382812 34.015625 7.390625 34 7.394531 C 33.980469 7.433594 33.980469 7.433594 33.964844 7.480469 C 33.960938 7.496094 33.957031 7.511719 33.949219 7.527344 C 33.945312 7.539062 33.941406 7.550781 33.9375 7.5625 C 33.921875 7.5625 33.910156 7.5625 33.894531 7.5625 C 33.894531 7.578125 33.894531 7.589844 33.894531 7.605469 C 33.882812 7.605469 33.867188 7.605469 33.855469 7.605469 C 33.855469 7.625 33.855469 7.644531 33.855469 7.667969 C 33.839844 7.667969 33.828125 7.667969 33.8125 7.667969 C 33.804688 7.714844 33.796875 7.761719 33.792969 7.8125 C 33.777344 7.8125 33.765625 7.8125 33.75 7.8125 C 33.75 7.828125 33.75 7.839844 33.75 7.855469 C 33.734375 7.855469 33.722656 7.855469 33.707031 7.855469 C 33.707031 7.875 33.707031 7.894531 33.707031 7.917969 C 33.695312 7.917969 33.679688 7.917969 33.667969 7.917969 C 33.667969 7.945312 33.667969 7.972656 33.667969 8 C 33.652344 8 33.640625 8 33.625 8 C 33.617188 8.035156 33.609375 8.070312 33.605469 8.105469 C 33.589844 8.105469 33.578125 8.105469 33.5625 8.105469 C 33.5625 8.132812 33.5625 8.160156 33.5625 8.1875 C 33.546875 8.1875 33.535156 8.1875 33.519531 8.1875 C 33.519531 8.214844 33.519531 8.242188 33.519531 8.269531 C 33.5 8.292969 33.480469 8.3125 33.457031 8.332031 C 33.433594 8.386719 33.433594 8.386719 33.417969 8.4375 C 33.402344 8.4375 33.390625 8.4375 33.375 8.4375 C 33.375 8.464844 33.375 8.492188 33.375 8.519531 C 33.359375 8.519531 33.347656 8.519531 33.332031 8.519531 C 33.332031 8.535156 33.332031 8.546875 33.332031 8.5625 C 33.320312 8.5625 33.304688 8.5625 33.292969 8.5625 C 33.285156 8.609375 33.277344 8.660156 33.269531 8.707031 C 33.257812 8.707031 33.242188 8.707031 33.230469 8.707031 C 33.230469 8.722656 33.230469 8.734375 33.230469 8.75 C 33.214844 8.75 33.203125 8.75 33.1875 8.75 C 33.1875 8.769531 33.1875 8.792969 33.1875 8.8125 C 33.171875 8.8125 33.160156 8.8125 33.144531 8.8125 C 33.144531 8.839844 33.144531 8.867188 33.144531 8.894531 C 33.132812 8.894531 33.117188 8.894531 33.105469 8.894531 C 33.097656 8.929688 33.089844 8.964844 33.082031 9 C 33.070312 9 33.054688 9 33.042969 9 C 33.042969 9.027344 33.042969 9.054688 33.042969 9.082031 C 33.027344 9.082031 33.015625 9.082031 33 9.082031 C 33 9.097656 33 9.109375 33 9.125 C 24.507812 9.125 16.019531 9.125 7.269531 9.125 C 7.269531 9.109375 7.269531 9.097656 7.269531 9.082031 C 7.257812 9.082031 7.242188 9.082031 7.230469 9.082031 C 7.230469 9.054688 7.230469 9.027344 7.230469 9 C 7.214844 9 7.203125 9 7.1875 9 C 7.1875 8.984375 7.1875 8.972656 7.1875 8.957031 C 7.171875 8.957031 7.160156 8.957031 7.144531 8.957031 C 7.144531 8.9375 7.144531 8.917969 7.144531 8.894531 C 7.132812 8.894531 7.117188 8.894531 7.105469 8.894531 C 7.097656 8.867188 7.089844 8.839844 7.082031 8.8125 C 7.070312 8.8125 7.054688 8.8125 7.042969 8.8125 C 7.042969 8.792969 7.042969 8.769531 7.042969 8.75 C 7.027344 8.75 7.015625 8.75 7 8.75 C 7 8.734375 7 8.722656 7 8.707031 C 6.984375 8.707031 6.972656 8.707031 6.957031 8.707031 C 6.894531 8.617188 6.894531 8.617188 6.894531 8.5625 C 6.882812 8.5625 6.867188 8.5625 6.855469 8.5625 C 6.847656 8.542969 6.84375 8.523438 6.839844 8.503906 C 6.808594 8.425781 6.796875 8.429688 6.730469 8.394531 C 6.714844 8.339844 6.714844 8.339844 6.707031 8.292969 C 6.695312 8.292969 6.679688 8.292969 6.667969 8.292969 C 6.667969 8.269531 6.667969 8.25 6.667969 8.230469 C 6.652344 8.230469 6.640625 8.230469 6.625 8.230469 C 6.625 8.214844 6.625 8.203125 6.625 8.1875 C 6.609375 8.1875 6.597656 8.1875 6.582031 8.1875 C 6.582031 8.167969 6.582031 8.144531 6.582031 8.125 C 6.5625 8.113281 6.5625 8.113281 6.542969 8.105469 C 6.535156 8.082031 6.527344 8.0625 6.519531 8.042969 C 6.507812 8.042969 6.492188 8.042969 6.480469 8.042969 C 6.480469 8.019531 6.480469 8 6.480469 7.980469 C 6.464844 7.980469 6.453125 7.980469 6.4375 7.980469 C 6.429688 7.957031 6.421875 7.9375 6.417969 7.917969 C 6.402344 7.910156 6.390625 7.902344 6.375 7.894531 C 6.375 7.867188 6.375 7.839844 6.375 7.8125 C 6.359375 7.8125 6.347656 7.8125 6.332031 7.8125 C 6.332031 7.796875 6.332031 7.785156 6.332031 7.769531 C 6.320312 7.765625 6.308594 7.761719 6.296875 7.757812 C 6.238281 7.722656 6.21875 7.6875 6.1875 7.625 C 6.1875 7.605469 6.1875 7.582031 6.1875 7.5625 C 6.171875 7.5625 6.160156 7.5625 6.144531 7.5625 C 6.144531 7.546875 6.144531 7.535156 6.144531 7.519531 C 6.132812 7.519531 6.117188 7.519531 6.105469 7.519531 C 6.105469 7.507812 6.105469 7.492188 6.105469 7.480469 C 6.089844 7.480469 6.078125 7.480469 6.0625 7.480469 C 6.058594 7.464844 6.058594 7.453125 6.054688 7.441406 C 6.046875 7.394531 6.046875 7.394531 6.011719 7.363281 C 5.980469 7.332031 5.980469 7.332031 5.96875 7.289062 C 5.964844 7.277344 5.960938 7.261719 5.957031 7.25 C 5.9375 7.242188 5.917969 7.234375 5.894531 7.230469 C 5.863281 7.175781 5.855469 7.148438 5.855469 7.082031 Z M 5.855469 7.082031 "/>
<path style=" stroke:none;fill-rule:nonzero;fill:rgb(0%,0%,0%);fill-opacity:1;" d="M 8.605469 17 C 9.324219 17 10.046875 17 10.792969 17 C 10.792969 17.015625 10.792969 17.027344 10.792969 17.042969 C 10.824219 17.042969 10.859375 17.042969 10.894531 17.042969 C 10.894531 17.054688 10.894531 17.070312 10.894531 17.082031 C 10.910156 17.082031 10.925781 17.082031 10.941406 17.082031 C 11.003906 17.082031 11.046875 17.101562 11.105469 17.125 C 11.144531 17.132812 11.1875 17.140625 11.230469 17.144531 C 11.230469 17.152344 11.230469 17.160156 11.230469 17.167969 C 11.261719 17.171875 11.296875 17.179688 11.332031 17.1875 C 11.332031 17.203125 11.332031 17.214844 11.332031 17.230469 C 11.367188 17.230469 11.402344 17.230469 11.4375 17.230469 C 11.4375 17.242188 11.4375 17.257812 11.4375 17.269531 C 11.460938 17.273438 11.460938 17.273438 11.488281 17.28125 C 11.542969 17.292969 11.542969 17.292969 11.5625 17.3125 C 11.5625 17.363281 11.566406 17.414062 11.566406 17.464844 C 11.566406 17.488281 11.566406 17.488281 11.5625 17.511719 C 11.5625 17.558594 11.5625 17.609375 11.5625 17.65625 C 11.5625 17.691406 11.5625 17.722656 11.5625 17.757812 C 11.5625 17.835938 11.5625 17.917969 11.5625 18 C 11.5 17.992188 11.4375 17.984375 11.375 17.980469 C 11.375 17.972656 11.375 17.964844 11.375 17.957031 C 11.339844 17.953125 11.304688 17.945312 11.269531 17.9375 C 11.269531 17.921875 11.269531 17.910156 11.269531 17.894531 C 11.257812 17.894531 11.242188 17.890625 11.226562 17.886719 C 11.160156 17.875 11.09375 17.851562 11.023438 17.832031 C 11 17.824219 10.976562 17.816406 10.953125 17.808594 C 10.933594 17.804688 10.914062 17.796875 10.894531 17.792969 C 10.894531 17.777344 10.894531 17.765625 10.894531 17.75 C 10.863281 17.75 10.828125 17.75 10.792969 17.75 C 10.792969 17.734375 10.792969 17.722656 10.792969 17.707031 C 10.78125 17.707031 10.769531 17.707031 10.757812 17.707031 C 10.480469 17.707031 10.203125 17.710938 9.929688 17.710938 C 9.796875 17.710938 9.660156 17.710938 9.527344 17.710938 C 9.398438 17.710938 9.269531 17.710938 9.140625 17.710938 C 9.09375 17.710938 9.042969 17.710938 8.996094 17.710938 C 8.925781 17.710938 8.855469 17.710938 8.789062 17.710938 C 8.769531 17.710938 8.746094 17.710938 8.726562 17.710938 C 8.707031 17.710938 8.6875 17.710938 8.667969 17.710938 C 8.644531 17.710938 8.644531 17.710938 8.621094 17.710938 C 8.582031 17.707031 8.582031 17.707031 8.5625 17.6875 C 8.5625 17.640625 8.558594 17.59375 8.558594 17.542969 C 8.558594 17.53125 8.558594 17.515625 8.5625 17.5 C 8.5625 17.453125 8.5625 17.410156 8.5625 17.363281 C 8.5625 17.332031 8.5625 17.300781 8.5625 17.269531 C 8.5625 17.195312 8.5625 17.117188 8.5625 17.042969 C 8.578125 17.042969 8.589844 17.042969 8.605469 17.042969 C 8.605469 17.027344 8.605469 17.015625 8.605469 17 Z M 8.605469 17 "/>
<path style=" stroke:none;fill-rule:nonzero;fill:rgb(0%,0%,0%);fill-opacity:1;" d="M 29.355469 16.996094 C 29.371094 16.996094 29.386719 16.996094 29.402344 16.996094 C 29.453125 16.996094 29.503906 16.996094 29.550781 16.996094 C 29.585938 16.996094 29.621094 16.996094 29.65625 16.996094 C 29.746094 16.996094 29.835938 16.996094 29.925781 16.996094 C 30.019531 16.996094 30.113281 16.996094 30.203125 16.996094 C 30.386719 17 30.566406 17 30.75 17 C 30.75 17.007812 30.75 17.015625 30.75 17.019531 C 31.089844 17.03125 31.089844 17.03125 31.4375 17.042969 C 31.4375 17.261719 31.4375 17.480469 31.4375 17.707031 C 31.371094 17.707031 31.304688 17.707031 31.238281 17.707031 C 31.019531 17.707031 30.804688 17.707031 30.585938 17.707031 C 30.453125 17.707031 30.324219 17.707031 30.191406 17.707031 C 30.0625 17.703125 29.9375 17.703125 29.808594 17.703125 C 29.761719 17.703125 29.710938 17.703125 29.664062 17.703125 C 29.597656 17.703125 29.527344 17.703125 29.460938 17.703125 C 29.441406 17.703125 29.421875 17.703125 29.398438 17.703125 C 29.371094 17.703125 29.371094 17.703125 29.34375 17.703125 C 29.320312 17.703125 29.320312 17.703125 29.292969 17.703125 C 29.242188 17.710938 29.210938 17.726562 29.167969 17.75 C 29.144531 17.75 29.125 17.75 29.105469 17.75 C 29.105469 17.765625 29.105469 17.777344 29.105469 17.792969 C 29.078125 17.792969 29.050781 17.792969 29.019531 17.792969 C 29.019531 17.804688 29.019531 17.820312 29.019531 17.832031 C 28.949219 17.84375 28.949219 17.84375 28.875 17.855469 C 28.875 17.867188 28.875 17.882812 28.875 17.894531 C 28.847656 17.894531 28.820312 17.894531 28.792969 17.894531 C 28.792969 17.910156 28.792969 17.921875 28.792969 17.9375 C 28.769531 17.9375 28.75 17.9375 28.730469 17.9375 C 28.730469 17.953125 28.730469 17.964844 28.730469 17.980469 C 28.636719 17.988281 28.636719 17.988281 28.542969 18 C 28.542969 17.773438 28.542969 17.546875 28.542969 17.3125 C 28.707031 17.230469 28.707031 17.230469 28.792969 17.230469 C 28.792969 17.214844 28.792969 17.203125 28.792969 17.1875 C 28.820312 17.1875 28.847656 17.1875 28.875 17.1875 C 28.875 17.171875 28.875 17.160156 28.875 17.144531 C 28.90625 17.136719 28.933594 17.125 28.964844 17.113281 C 28.980469 17.109375 28.996094 17.101562 29.011719 17.097656 C 29.0625 17.082031 29.0625 17.082031 29.144531 17.082031 C 29.144531 17.070312 29.144531 17.054688 29.144531 17.042969 C 29.222656 16.988281 29.265625 16.996094 29.355469 16.996094 Z M 29.355469 16.996094 "/>
<path style=" stroke:none;fill-rule:nonzero;fill:rgb(0%,0%,0%);fill-opacity:1;" d="M 13.941406 19.226562 C 13.96875 19.226562 13.96875 19.226562 14 19.226562 C 14.023438 19.226562 14.042969 19.226562 14.066406 19.226562 C 14.089844 19.226562 14.113281 19.226562 14.140625 19.226562 C 14.164062 19.226562 14.1875 19.226562 14.214844 19.226562 C 14.292969 19.226562 14.371094 19.226562 14.449219 19.226562 C 14.503906 19.226562 14.554688 19.226562 14.609375 19.226562 C 14.738281 19.226562 14.871094 19.230469 15 19.230469 C 15 19.242188 15 19.257812 15 19.269531 C 15.027344 19.269531 15.054688 19.269531 15.082031 19.269531 C 15.082031 19.285156 15.082031 19.296875 15.082031 19.3125 C 15.105469 19.3125 15.125 19.3125 15.144531 19.3125 C 15.144531 19.328125 15.144531 19.339844 15.144531 19.355469 C 15.199219 19.363281 15.199219 19.363281 15.25 19.375 C 15.25 19.511719 15.25 19.648438 15.25 19.792969 C 15.136719 19.792969 15.082031 19.769531 14.980469 19.730469 C 14.980469 19.714844 14.980469 19.703125 14.980469 19.6875 C 14.613281 19.6875 14.25 19.6875 13.875 19.6875 C 13.875 19.230469 13.875 19.230469 13.941406 19.226562 Z M 13.941406 19.226562 "/>
<path style=" stroke:none;fill-rule:nonzero;fill:rgb(0%,0%,0%);fill-opacity:1;" d="M 25.019531 19.230469 C 25.359375 19.230469 25.695312 19.230469 26.042969 19.230469 C 26.042969 19.269531 26.042969 19.3125 26.042969 19.355469 C 26.054688 19.355469 26.070312 19.355469 26.082031 19.355469 C 26.082031 19.449219 26.082031 19.546875 26.082031 19.644531 C 26.070312 19.644531 26.054688 19.644531 26.042969 19.644531 C 26.042969 19.660156 26.042969 19.671875 26.042969 19.6875 C 26.03125 19.6875 26.015625 19.6875 26.003906 19.6875 C 25.875 19.691406 25.746094 19.691406 25.617188 19.695312 C 25.570312 19.695312 25.523438 19.695312 25.476562 19.695312 C 25.40625 19.695312 25.335938 19.699219 25.269531 19.699219 C 25.238281 19.699219 25.238281 19.699219 25.203125 19.699219 C 25.171875 19.699219 25.171875 19.699219 25.144531 19.703125 C 25.125 19.703125 25.109375 19.703125 25.089844 19.703125 C 25.023438 19.710938 24.976562 19.738281 24.917969 19.773438 C 24.863281 19.796875 24.8125 19.792969 24.75 19.792969 C 24.722656 19.453125 24.722656 19.453125 24.785156 19.367188 C 24.851562 19.328125 24.898438 19.3125 24.980469 19.3125 C 24.980469 19.296875 24.980469 19.285156 24.980469 19.269531 C 24.992188 19.269531 25.007812 19.269531 25.019531 19.269531 C 25.019531 19.257812 25.019531 19.242188 25.019531 19.230469 Z M 25.019531 19.230469 "/>
<path style=" stroke:none;fill-rule:nonzero;fill:rgb(40.392157%,34.117647%,33.72549%);fill-opacity:1;" d="M 33.0625 8.894531 C 33.078125 8.894531 33.089844 8.894531 33.105469 8.894531 C 33.097656 8.929688 33.089844 8.964844 33.082031 9 C 33.070312 9 33.054688 9 33.042969 9 C 33.042969 9.027344 33.042969 9.054688 33.042969 9.082031 C 33.007812 9.082031 32.972656 9.082031 32.9375 9.082031 C 32.957031 9.050781 32.976562 9.019531 32.996094 8.988281 C 33.007812 8.972656 33.019531 8.953125 33.03125 8.9375 C 33.046875 8.917969 33.046875 8.917969 33.0625 8.894531 Z M 33.0625 8.894531 "/>
</g>
</svg>
